<?xml version="1.0" encoding="UTF-8"?>
<svg data-name="Layer 1" version="1.1" viewBox="0 0 973.3 761.25" xmlns="http://www.w3.org/2000/svg" xmlns:xlink="http://www.w3.org/1999/xlink">
	<defs>
		<linearGradient id="a" x1="572.47" x2="572.47" y1="806.15" y2="69.38" gradientUnits="userSpaceOnUse">
			<stop stop-color="gray" stop-opacity=".25" offset="0"/>
			<stop stop-color="gray" stop-opacity=".12" offset=".54"/>
			<stop stop-color="gray" stop-opacity=".1" offset="1"/>
		</linearGradient>
		<linearGradient id="b" x1="1361.3" x2="1361.3" y1="830.62" y2="437.76" gradientTransform="matrix(-1 0 0 1 1500.6 -69.38)" xlink:href="#a"/>
		<linearGradient id="linearGradient1027" x1="572.47" x2="572.47" y1="806.15" y2="69.38" gradientTransform="translate(-113.35,-69.38)" gradientUnits="userSpaceOnUse" xlink:href="#a"/>
	</defs>
	<path d="m917.26 480.46c-38.14 51.787-14.599 118.7 8.4541 171.43 23.372 51.148-37.069 89.753-82.401 87.633-53.873 4.4827-94.575-34.619-130.31-68.974-56.481-50.303-139.32-33.851-202.81-7.587-41.941 18.309-99.987 30.952-134.04-8.7888-29.571-25.745-23.277-77.09-62.786-93.025-78.776-38.54-181.52-9.1638-248.36-75.256-73.148-72.135-69.367-183.28-60.516-277.93 1.8351-50.589 34.62-102.38 87.984-109.11 76.783-13.983 140.19 42.662 194.42 88.25 38.705 34.822 91.543 48.207 142.53 41.405 98.255-6.8548 196.82 7.2912 293.34 24.258 55.764 7.9019 100.97 42.336 150.81 65.075 42.407 10.616 96.32 33.43 99.716 83.889 1.1366 36.697-36.101 53.871-56.035 78.732z" fill="#15b3d7" opacity=".1"/>
	<path d="m764.55 629.37c-28.752-17.553 25.192-40.115 34.399-60.647 10.965-13.265 77.786-39.23 28.438-28.944-50.69 11.577-92.19-27.123-141.92-24.077-20.492 2.0542 8.596-22.8 14.316-29.493 3.8814-4.3834 17.926-13.759 5.97-7.06-30.758 10.935-62.531-3.8369-93.34-6.84l22.73-44.12c6.5005 18.218 37.766 48.538 42.31 14.43 31.03 34.932 14.325-44.535 46.367-20.413 24.356 5.9089 41.871-10.472 18.063-28.587 31.11 3.6627 56.865-21.644 37.756-37.103 42.949-29.711-27.024-34.078-26.159-42.266 23.47-23.554 7.0535-48.674-22.857-28.641 3.3583-16.052-12.279-36.191 7.68-25.49 11.865-22.611 4.8639-40.601 36.124-30.066 39.497 3.9792 13.959-27.063 16.174-29.036 18.296 0.53701 60.728-19.922 27.013-34.267 55.24-30.275-29.598-39.62-22.208-45.082 23.1-23.918 6.2363-48.793-23.312-28.238 11.191-58.122-36.216-16.162-44.155-12.86-13.392-39.884-42.433-16.76-35.525 14.89-15.129-14.663-56.067-24.431-39.13 9.46-29.805-10.371-43.066 13.552-16.6 32.14-34.199 0.0227-48.33 32.793-6.76 39.54-30.94 13.196-36.382 52.184 7.53 40.23-2.3828 31.491-26.722 59.595-46.667 78.178-16.998 8.9755-51.806-22.843-20.354-27.989 32.897-22.109-11.689-34.331-16.472-33.649 28.879-53.306-38.976-16.667-37.027-24.737 5.6182-41.718-30.748-33.387-38.55-2.0832-7.1738-19.936-39.54-45.987-39.38-8.42-22.217-22.144-44.581-6.5532-29.27 21.73-30.652-14.721-57.792 8.3761-23.51 32.6-33.433-1.5959-56.12 30.891-11.13 39.37-33.04 25.552 2.886 43.275 28.6 29.12-5.122 19.68 10.385 69.045 31.43 38.04 4.0449 36.719 35.126-15.774 26.8 21.985 1.5623 65.87 0.61835 132.55-13.53 197.17-22.919-89.544-41.23-182.9-93.396-261.11-30.761-50.173-62.332-99.91-96.654-147.74 28.203 12.853 49.4-3.4587 41.799-21.175 51.568-8.8968-9.5037-41.991-5.4026-49.305 31.382-11.395 27.419-41.097-8.4362-35.45 28.615-33.897-10.135-46.911-34.05-23.9 9.0296-41.806-28.283-46.764-38.37-8.7-7.1738-19.936-39.54-45.987-39.38-8.42-22.217-22.14-44.595-6.5616-29.28 21.73-30.614-14.723-58.037 8.2926-23.65 32.6-33.43-1.566-56.087 30.931-11.11 39.4-33.04 25.552 2.886 43.275 28.6 29.12-5.122 19.68 10.385 69.045 31.43 38.04 14.12 44.526 32.931-36.187 53.734 2.5438 36.908 4.9862 46.678 47.471 68.19 73.258 53.544 84.189 93.361 176.63 124.78 271.12-28.699-34.373-52.284-80.283-105.92-59.125-35.556 1.0385-75.711 23.871-109.49 4.8847 13.346 11.322 27.599 23.498 35 39.83-50.97-6.96-92.633 33.426-143.64 24.587-22.869-2.4978-39.071-6.0264-8.9023 8.2906 27.963 15.705 71.517 53.841 74.724 75.237-29.711 34.713-71.297 57.989-110.43 78.895 42.482 2.1304 83.995 13.109 125.6 19.171 38.608 1.8124 74.504-15.93 112.53-16.581 19.969-3.8677 31.405 23.8 4.3962 22.818-37.721 12.652 6.7781 6.9786 19.663 8.1725 111.29 0.30113 222.68-0.60151 333.91 0.45-22.295-11.149-70.924-23.015-21.217-30.984 50.346-1.8623 100.94 28.008 151.21 10.711 24.722-8.7539 79.15-8.6379 92.064-15.464-36.518-19.703-73.901-40.652-102.13-71.683zm-42.75-377.8c-0.94188 0.91506-0.41089-1.334 0 0zm-150.89 83.35c-27.691 3.5125 8.9448-25.363 7.9819-12.555l-2.7094 4.2425zm6.74 28.11c22.244 2.2908-31.395 38.475 0 0zm-98.8 126.59c7.091-39.051-3.817-107.19 8.044-129.03 19.769 15.458 40.94 6.6545 27.666-18.87 20.546 12.527 66.973-5.8429 33.575 29.778-40.092 57.582-54.454 127.45-74.875 193.39 2.1984-25.064 4.0729-50.156 5.59-75.27zm59.33-12.22c-9.043 18.603-43.803 60.205-20.794 16.751 18.205-34.816 36.052-118.7 75.079-80.847-16.167 28.155 20.24 19.879 12.41 31.495-6.9392 45.845-43.348 8.8601-66.695 32.601zm184.47-224.16c-2.4291-2.8254 2.4646-0.23926 0 0zm-69.12-7.27c25.44-26.287 26.22 1.0229 46.88 17.33-12.982 41.846-33.467-48.843-47.089 0.18875-1.8072 21.047-1.9016 26.232-21.391 12.131 7.0424-9.9886 14.36-19.899 21.6-29.65z" fill="url(#linearGradient1027)"/>
	<path d="m435.02 550.67c-35.528-21.653-44.554-84.093-92.464-77.87-43.435-2.5531-86.547 23.798-129.2 9.5889 6.9854 1.0961 30.857 42.411 44.14 58.958 34.428 27.468 77.231 42.169 113.66 65.586 21.288 19.896 42.576 39.792 63.863 59.688 13.276-7.2478 31.474-12.334 20.137-30.389-6.7123-28.52-13.425-57.04-20.137-85.561z" fill="#15b3d7"/>
	<path d="m459.12 653.08c-13.088 7.5693-26.804 20.374-36.753 1.7428-27.408-22.914-49.098-54.109-83.952-66.168-32.009-19.447-75.294-31.502-93.919-65.511-4.2087-25.625-59.254-51.678-10.27-36.214 46.877 0.0747 95.197-25.358 141.19-8.7367 13.314 33.338 51.866 51.366 62.435 84.525 7.0896 30.121 14.179 60.241 21.269 90.362z" opacity=".05"/>
	<path d="m427.49 648.56c-19.125 2.9725-28.281-19.301-42.521-28.701-25.115-28.351-64.312-36.05-94.905-57.045-21.972-6.9203-81.121-61.402-20.704-46.763 30.631 31.622 71.247 50.324 111.75 49.928 25.485 20.019 36.505 52.983 46.381 82.582z" opacity=".1"/>
	<path d="m425.99 653.08c-70.838 1.0185-141.56-3.7836-212.34-6-42.686-17.872-66.793-56.461-100.84-84.049-13.385-11.151-58.689-29.353-15.954-20.104 50.829 11.366 92.288-28.594 142.5-23.724 45.736-7.9333 72.644 57.959 117.8 46.842 43.486-2.3626 55.898 57.521 68.834 87.036zm52.66-102.41c35.528-21.653 44.554-84.093 92.464-77.87 43.435-2.5531 86.547 23.798 129.2 9.5889-6.9854 1.0961-30.857 42.411-44.14 58.958-34.428 27.468-77.231 42.169-113.66 65.586-21.288 19.896-42.576 39.792-63.863 59.688-13.276-7.2478-31.474-12.334-20.137-30.389 6.7123-28.52 13.425-57.04 20.137-85.561z" fill="#15b3d7"/>
	<path d="m704.54 479.93c-32.831 21.32-36.111 66.13-75.539 79.789-32.313 22.715-74.009 30.892-100.9 60.774-16.466 15.394-32.924 30.797-49.45 46.127-13.276-7.2478-31.474-12.334-20.137-30.389 7.9259-28.97 11.939-60.105 22.287-87.734 36.014-23.806 46.372-89.159 99.247-75.223 41.291-1.5259 85.009 26.154 124.49 6.6571z" opacity=".05"/>
	<path d="m429.54 634.62c-13.523 11.559 16.229 20.534 2.67 36.742 25.012 16.509 45.745-9.9832 53.07-27.052 16.559-37.623-13.316-29.906-43.319-32.638-15.508-4.3321-4.8493 17.534-12.421 22.948zm243.27-120c-10.625 36.385-53.122 47.755-82.236 66.312-24.094 11.466-48.447 22.205-66.085 42.927-12.929 9.076-21.578 29.001-39.769 24.741 12.153-33.376 30.898-101.15 78.31-82.87 41.618-8.5891 67.158-56.027 109.78-51.11z" opacity=".1"/>
	<path d="m838.65 540.13c-39.217 15.93-64.043 48.561-92.77 76.74-22.388 17.382-45.743 35.462-75.404 31.326-60.907 2.0647-121.78 5.8711-182.75 4.8537 10.711-39.926 36.373-100.89 86.121-85.907 43.741-15.004 72.169-63.124 123.32-46.973 45.982 9.1008 89.897 34.496 138.69 20.435z" fill="#15b3d7"/>
	<g fill="#635151">
		<path d="m695.55 193.01c-62.877 74.06-117.42 155.7-154.03 246-40.301 92.195-83.03 188.07-85.413 290.29-36.583 17.191-24.417-12.868-15.839-39.15 25.393-92.998 45.925-188.18 83.821-277.09 48.721-79.627 94.743-162.36 157.56-231.97 17.51-21.079 13.736-3.0446 13.9 11.919z"/>
		<path d="m478.29 493.45c-4.9914 68.755-5.4796 139.28-32.364 203.99 4.0293 18.814-27.232 58.727-30.309 30.824 17.631-68.12 32.912-137.08 42.422-206.78 6.9679-60.668 3.4118-123.04 2.979-183.03 20.377-39.711 19.197 28.2 20.264 45.501 0.74169 36.523-0.88775 73.049-2.9918 109.5zm184.55-118.26c-50.882 83.163-91.005 173.1-114.04 267.96-15.512 26.888-6.5931 82.781-33.23 93.485-20.729-17.465 9.0417-80.228 10.582-112.04 34.493-87.188 68.772-175.61 118.56-255.42 18.089-25.948 14.463-14.06 18.127 6.02z"/>
		<path d="m203.11 131.27c76.869 99.05 143.66 206.64 187.72 324.46 25.712 67.928 51.414 138.37 51.722 211.9 35.114 16.672 25.187-11.764 17.615-37.394-21.387-84.637-36.332-172.15-72.382-252.18-44.479-84.382-96.141-165.39-154.51-240.84-15.983-15.462-35.466-48.266-30.164-5.9546zm436.21 605.85c-119.89-0.97969-239.97-0.29446-359.92-0.34 69.328-33.582 149.55-33.038 225.02-30.314 45.745 3.7593 94.071 8.1021 134.9 30.654z"/>
	</g>
	<path d="m425.99 653.08c-70.838 1.0185-141.56-3.7836-212.34-6-23.2-12.687-62.621-33.105-16.728-44.396 36.893-28.845 90.454 22.203 117.07-12.958 39.964-29.697 112.37 17.2 112 63.355z" opacity=".1"/>
	<path d="m438.03 635.76c-31.144-24.37-67.338-56.044-109.67-50.018-26.989 40.424-68.477 6.3211-107.74 14.82-47.505 4.302-69.257 51.366-108.08 72.304-13.606 14.149-80.973 35.059-27.508 33.273 48.052 3.2606 94.436 25.427 142.78 11.497 37.523-13.9 78.299-11.275 114.7-4.8223 33.346-13.638 66.692-27.276 100.04-40.913-1.5067-12.047-3.0133-24.093-4.52-36.14z" fill="#15b3d7"/>
	<path d="m442.55 671.9c-35.633 14.573-71.267 29.147-106.9 43.72-50.579-24.654-101.56 8.7535-153.4 6.8781-36.739-7.4088-92.891-15.219-119.03-20.592 41.467-21.257 80.496-47.881 111.79-82.584 37.185-31.417 84.337-16.731 126.29-11.832 20.633-35.054 68.795-23.094 97.298-1.108 20.676 13.193 45.676 26.282 42.525 54.133 0.47583 3.7945 0.95167 7.589 1.4275 11.384z" opacity=".05"/>
	<path d="m745.83 616.88c-22.388 17.382-45.743 35.462-75.404 31.326-60.89 2.0634-121.75 5.8704-182.7 4.8537 3.6274-54.929 95.184-100.97 129.21-50.099 40.78-4.0508 85.665-19.487 122.72 9.306z" opacity=".1"/>
	<path d="m480.2 635.76c31.144-24.37 67.338-56.044 109.67-50.018 26.989 40.424 68.477 6.3211 107.74 14.82 47.505 4.302 69.257 51.366 108.08 72.304 13.601 14.148 80.972 35.056 27.514 33.274-48.052 3.2646-94.43 25.453-142.78 11.516-37.504-13.884-78.255-11.292-114.64-4.84-33.379-13.639-66.758-27.277-100.14-40.916 1.5167-12.047 3.0333-24.093 4.55-36.14z" fill="#15b3d7"/>
	<path d="m858.19 703.53c-47.392 0.13745-92.595 20.834-139.57 17.843-45.492-2.5218-91.38-28.422-135.97-5.7532-35.667-14.573-71.333-29.147-107-43.72 2.5812-20.735 0.91335-44.186 25.191-52.702 28.468-18.969 68.011-49.265 101.96-26.3 24.089 37.992 74.814-13.118 110.4 11.425 42.461 13.993 64.561 57.994 105.06 76.615 13.008 8.0427 26.307 15.629 39.925 22.592z" opacity=".05"/>
	<path d="m605.92 708.62c-21.674 14.685-41.546-1.9149-62.162-8.8911-22.703-9.2763-45.405-18.553-68.108-27.829-4.2884-42.971 53.371-13.368 77.596-11.092 21.822 4.8968 58.3 20.939 52.674 47.812zm-163.37-36.72c-35.633 14.573-71.267 29.147-106.9 43.72-36.932 3.0796-42.416-21.616-17.265-42.072 33.984-26.989 81.102-24.2 121.83-20.328 0.77667 6.2267 1.5533 12.453 2.33 18.68z" opacity=".1"/>
	<g fill="#15b3d7">
		<path d="m602.51 709.31c-19.454 16.748-46.135 30.465-73.094 27.37-56.75-0.50094-114.69 1.0013-170.7-0.75-38.375 5.8944-76.394-38.448-30.512-63.594 39.194-25.512 89.129-18.295 132.4-14.939 35.799-13.199 74.928 4.2048 110.01 13.072 13.04 8.9961 34.839 19.973 31.89 38.84z"/>
		<path d="m500.59 271.87c1.5401 32.158-43.34 45.803-68.672 34.827-23.074-8.607-12.11-38.875 6.8219-45.189 18.323-9.812 52.739-13.505 61.85 10.362z"/>
		<path d="m491.73 264.03c21.778-14.373 85.963-31.611 84.423 0.74406-14.633 26.051-83.428 39.136-85.029 5.066 0.20222-1.9367 0.40445-3.8734 0.60668-5.81z"/>
	</g>
	<path d="m482.22 264.16c12.105-23.115 59.938-69.254 74.243-40.194-0.2099 29.88-54.095 74.581-71.977 45.538-0.75532-1.7812-1.5106-3.5625-2.266-5.3438z" opacity=".05"/>
	<path d="m479.86 262.98c12.098-23.12 59.934-69.278 74.243-40.194-0.2099 29.88-54.095 74.581-71.977 45.538-0.75532-1.7812-1.5106-3.5625-2.266-5.3438z" fill="#15b3d7"/>
	<path d="m486.96 278.56c-18.759-26.38 20.212-49.002 39.417-62.354 65.219-24.367 5.4441 68.31-39.417 62.354z" opacity=".05"/>
	<path d="m517.65 221.22c8.0106 26.471-49.812 78.385-31.627 31.619 8.9256-11.969 19.182-23.232 31.627-31.619z" opacity=".05"/>
	<path d="m483.71 276.27c-31.312-14.466-8.0414-60.238 5.9725-81.416 38.797-35.576 30.536 66.178-5.9725 81.416z" fill="#15b3d7"/>
	<path d="m480.8 273.95c-31.186-8.6352 5.2003-95.019 5.37-36.154 0.81934 12.269-1.4776 24.556-5.37 36.154z" opacity=".05"/>
	<path d="m460.26 273.07c-15.557-20.929-36.356-84.044-3.9608-84.29 26.819 13.136 43.764 81.146 9.8397 84.587-1.9596-0.099-3.9193-0.1979-5.8789-0.29685z" fill="#15b3d7"/>
	<path d="m451.26 276.22c-21.27-15.117-60.485-68.782-29.716-79 29.585 4.2332 66.602 63.705 35.388 77.466l-5.6718 1.534z" opacity=".05"/>
	<path d="m448.9 276.22c-21.258-15.125-60.5-68.774-29.756-79 29.586 4.2376 66.6 63.696 35.39 77.473-1.8779 0.50904-3.7558 1.0181-5.6336 1.5271z" fill="#15b3d7"/>
	<path d="m442.83 283.77c-25.689-4.5593-84.122-36.225-60.731-58.637 28.543-8.8295 87.463 29.036 65.167 54.845-1.4788 1.2639-2.9577 2.5278-4.4365 3.7918z" opacity=".05"/>
	<path d="m441.65 286.12c-25.689-4.5593-84.122-36.225-60.731-58.637 28.543-8.8295 87.463 29.036 65.167 54.845-1.4788 1.2639-2.9577 2.5278-4.4365 3.7918z" fill="#15b3d7"/>
	<path d="m438.15 297.62c-25.214 6.7082-91.552 2.6676-79.812-27.52 22.15-20.048 91.535-10.607 82.232 22.206-0.80653 1.7714-1.613 3.5427-2.4196 5.3141z" opacity=".05"/>
	<path d="m436.97 299.94c-25.214 6.7082-91.552 2.6676-79.812-27.52 22.15-20.048 91.535-10.607 82.232 22.206-0.80653 1.7714-1.613 3.5427-2.4196 5.3141z" fill="#15b3d7"/>
	<path d="m448.11 295.29c-17.427 19.422-75.158 52.354-81.86 20.661 7.5605-28.905 70.79-58.99 80.974-26.437 0.29538 1.9254 0.59077 3.8508 0.88616 5.7761z" opacity=".05"/>
	<path d="m450.47 297.62c-17.427 19.422-75.158 52.354-81.86 20.661 7.5605-28.905 70.79-58.99 80.974-26.437 0.29538 1.9254 0.59077 3.8508 0.88616 5.7761z" fill="#15b3d7"/>
	<path d="m446.33 289.9c4.7628 25.654-4.3441 91.49-33.549 77.471-18.3-23.619-3.5643-92.087 28.438-80.291 1.7037 0.94006 3.4073 1.8801 5.111 2.8202z" opacity=".05"/>
	<path d="m449.86 291.07c4.7628 25.654-4.3441 91.49-33.549 77.471-18.3-23.619-3.5643-92.087 28.438-80.291 1.7037 0.94006 3.4073 1.8801 5.111 2.8202z" fill="#15b3d7"/>
	<path d="m472.85 294.68c4.7628 25.654-4.3441 91.49-33.549 77.471-18.3-23.619-3.5643-92.087 28.438-80.291 1.7037 0.94006 3.4073 1.8801 5.111 2.8202z" opacity=".05"/>
	<path d="m475.21 294.68c4.7628 25.654-4.3441 91.49-33.549 77.471-18.3-23.619-3.5643-92.087 28.438-80.291 1.7037 0.94006 3.4073 1.8801 5.111 2.8202z" fill="#15b3d7"/>
	<path d="m466.5 296.07c22.436 13.298 65.999 63.483 36.219 76.225-29.82-1.7645-71.671-57.974-41.705-74.247 1.8286-0.65942 3.6573-1.3188 5.4859-1.9783z" opacity=".05"/>
	<path d="m468.85 296.07c22.438 13.296 66.01 63.48 36.229 76.225-29.821-1.7659-71.67-57.971-41.706-74.249 1.8256-0.65869 3.6511-1.3174 5.4767-1.9761z" fill="#15b3d7"/>
	<path d="m482.15 286.94c29.4 5.9722 90.326 39.436 70.004 66.218-32.785 8.9214-86.932-28.998-75.864-59.485 1.9534-2.2444 3.9068-4.4888 5.8601-6.7332z" opacity=".05"/>
	<path d="m484.51 285.76c29.4 5.9722 90.326 39.436 70.004 66.218-32.785 8.9214-86.932-28.998-75.864-59.485 1.9534-2.2444 3.9068-4.4888 5.8601-6.7332zm-24.25-12.69c-15.557-20.929-36.356-84.044-3.9608-84.29 26.819 13.136 43.764 81.146 9.8397 84.587-1.9596-0.099-3.9193-0.1979-5.8789-0.29685z" fill="#15b3d7"/>
	<path d="m460.26 273.07c-15.557-20.929-36.356-84.044-3.9608-84.29 26.819 13.136 43.764 81.146 9.8397 84.587-1.9596-0.099-3.9193-0.1979-5.8789-0.29685z" opacity=".05"/>
	<path d="m441.65 286.12c-25.689-4.5593-84.122-36.225-60.731-58.637 28.543-8.8295 87.463 29.036 65.167 54.845-1.4788 1.2639-2.9577 2.5278-4.4365 3.7918z" fill="#15b3d7"/>
	<path d="m441.65 286.12c-25.689-4.5593-84.122-36.225-60.731-58.637 28.543-8.8295 87.463 29.036 65.167 54.845-1.4788 1.2639-2.9577 2.5278-4.4365 3.7918z" opacity=".05"/>
	<path d="m450.47 297.62c-17.427 19.422-75.158 52.354-81.86 20.661 7.5605-28.905 70.79-58.99 80.974-26.437 0.29538 1.9254 0.59077 3.8508 0.88616 5.7761z" fill="#15b3d7"/>
	<path d="m450.47 297.62c-17.427 19.422-75.158 52.354-81.86 20.661 7.5605-28.905 70.79-58.99 80.974-26.437 0.29538 1.9254 0.59077 3.8508 0.88616 5.7761z" opacity=".05"/>
	<path d="m475.21 294.68c4.7628 25.654-4.3441 91.49-33.549 77.471-18.3-23.619-3.5643-92.087 28.438-80.291 1.7037 0.94006 3.4073 1.8801 5.111 2.8202z" fill="#15b3d7"/>
	<path d="m475.21 294.68c4.7628 25.654-4.3441 91.49-33.549 77.471-18.3-23.619-3.5643-92.087 28.438-80.291 1.7037 0.94006 3.4073 1.8801 5.111 2.8202z" opacity=".05"/>
	<path d="m484.51 285.76c29.4 5.9722 90.326 39.436 70.004 66.218-32.785 8.9214-86.932-28.998-75.864-59.485 1.9534-2.2444 3.9068-4.4888 5.8601-6.7332z" fill="#15b3d7"/>
	<path d="m484.51 285.76c29.4 5.9722 90.326 39.436 70.004 66.218-32.785 8.9214-86.932-28.998-75.864-59.485 1.9534-2.2444 3.9068-4.4888 5.8601-6.7332z" opacity=".05"/>
	<path d="m491.3 275.74c30.002 4e-3 96.364 20.673 81.786 50.965-30.355 15.27-90.953-11.113-86.185-43.197 1.4663-2.5893 2.9326-5.1787 4.3989-7.768z" opacity=".05"/>
	<path d="m492.48 269.85c30.002 4e-3 96.364 20.673 81.786 50.965-30.355 15.27-90.953-11.113-86.185-43.197 1.4663-2.5893 2.9326-5.1787 4.3989-7.768z" opacity=".05"/>
	<path d="m492.48 273.39c30.002 4e-3 96.364 20.673 81.786 50.965-30.355 15.27-90.953-11.113-86.185-43.197 1.4663-2.5893 2.9326-5.1787 4.3989-7.768z" fill="#15b3d7"/>
	<path d="m510.51 292.21c-7.4421 39.037-67.885 43.624-81.133 6.1573-16.582-34.148 24.769-73.318 57.962-55.267 18.124 8.2811 28.303 29.853 23.171 49.11z" fill="#f7931a"/>
	<path d="m243.59 98.543c1.5401 32.158-43.34 45.803-68.672 34.827-23.074-8.607-12.11-38.875 6.8219-45.189 18.323-9.812 52.739-13.505 61.85 10.362z" fill="#15b3d7"/>
	<path d="m234.72 90.73c21.778-14.373 85.963-31.611 84.423 0.74406-14.633 26.051-83.428 39.136-85.029 5.066 0.20222-1.9367 0.40445-3.8734 0.60668-5.81z" fill="#15b3d7"/>
	<path d="m225.21 90.85c12.105-23.115 59.938-69.254 74.243-40.194-0.2099 29.88-54.095 74.581-71.977 45.538-0.75532-1.7813-1.5106-3.5625-2.266-5.3438z" opacity=".05"/>
	<path d="m222.85 89.67c12.105-23.115 59.938-69.254 74.243-40.194-0.2099 29.88-54.095 74.581-71.977 45.538-0.75532-1.7813-1.5106-3.5625-2.266-5.3438z" fill="#15b3d7"/>
	<path d="m229.95 105.25c-18.761-26.382 20.242-48.981 39.427-62.354 65.213-24.371 5.4345 68.319-39.427 62.354z" opacity=".05"/>
	<path d="m260.65 47.91c8.0132 26.463-49.806 78.38-31.627 31.633 8.9335-11.967 19.194-23.225 31.627-31.633z" opacity=".05"/>
	<path d="m226.65 102.97c-31.224-14.539-7.9952-60.23 6.0225-81.416 38.82-35.572 30.504 66.19-6.0225 81.416z" fill="#15b3d7"/>
	<path d="m223.79 100.62c-31.189-8.6465 5.2093-95.028 5.37-36.135 0.8192 12.263-1.4755 24.545-5.37 36.135z" opacity=".05"/>
	<path d="m203.25 99.76c-15.557-20.929-36.356-84.044-3.9608-84.29 26.819 13.136 43.764 81.146 9.8397 84.587-1.9596-0.098949-3.9193-0.1979-5.8789-0.29685z" fill="#15b3d7"/>
	<path d="m194.25 102.92c-21.258-15.125-60.5-68.774-29.756-79 29.586 4.2376 66.6 63.696 35.39 77.473-1.8779 0.50904-3.7558 1.0181-5.6336 1.5271z" opacity=".05"/>
	<path d="m191.89 102.92c-21.258-15.125-60.5-68.774-29.756-79 29.586 4.2376 66.6 63.696 35.39 77.473-1.8779 0.50904-3.7558 1.0181-5.6336 1.5271z" fill="#15b3d7"/>
	<path d="m185.82 110.46c-25.689-4.5593-84.122-36.225-60.731-58.637 28.543-8.8295 87.463 29.036 65.167 54.845-1.4788 1.2639-2.9577 2.5278-4.4365 3.7918z" opacity=".05"/>
	<path d="m184.65 112.82c-25.689-4.5593-84.122-36.225-60.731-58.637 28.543-8.8295 87.463 29.036 65.167 54.845-1.4788 1.2639-2.9577 2.5278-4.4365 3.7918z" fill="#15b3d7"/>
	<path d="m181.14 124.27c-25.214 6.7082-91.552 2.6676-79.812-27.52 22.15-20.048 91.535-10.607 82.232 22.206-0.80653 1.7714-1.613 3.5427-2.4196 5.3141z" opacity=".05"/>
	<path d="m179.96 126.62c-25.214 6.7082-91.552 2.6676-79.812-27.52 22.15-20.048 91.535-10.607 82.232 22.206-0.80653 1.7714-1.613 3.5427-2.4196 5.3141z" fill="#15b3d7"/>
	<path d="m191.1 121.98c-17.427 19.422-75.158 52.354-81.86 20.661 7.5605-28.905 70.79-58.99 80.974-26.437 0.29538 1.9254 0.59077 3.8508 0.88616 5.7761z" opacity=".05"/>
	<path d="m193.46 124.34c-17.427 19.419-75.153 52.365-81.86 20.681 7.5618-28.906 70.787-58.99 80.976-26.437l0.88413 5.7564z" fill="#15b3d7"/>
	<path d="m189.32 116.62c4.7628 25.654-4.3441 91.49-33.549 77.471-18.3-23.619-3.5643-92.087 28.438-80.291 1.7037 0.94006 3.4073 1.8801 5.111 2.8202z" opacity=".05"/>
	<path d="m192.85 117.77c4.7628 25.654-4.3441 91.49-33.549 77.471-18.3-23.619-3.5643-92.087 28.438-80.291 1.7037 0.94006 3.4073 1.8801 5.111 2.8202z" fill="#15b3d7"/>
	<path d="m215.84 121.37c4.7628 25.654-4.3441 91.49-33.549 77.471-18.3-23.619-3.5643-92.087 28.438-80.291 1.7037 0.94006 3.4073 1.8801 5.111 2.8202z" opacity=".05"/>
	<path d="m218.2 121.37c4.7628 25.654-4.3441 91.49-33.549 77.471-18.3-23.619-3.5643-92.087 28.438-80.291 1.7037 0.94006 3.4073 1.8801 5.111 2.8202z" fill="#15b3d7"/>
	<path d="m209.49 122.76c22.442 13.306 65.998 63.506 36.219 76.255-29.825-1.7762-71.662-57.95-41.712-74.265 1.8308-0.66341 3.6616-1.3268 5.4924-1.9902z" opacity=".05"/>
	<path d="m211.84 122.76c22.442 13.306 65.998 63.506 36.219 76.255-29.825-1.7762-71.662-57.95-41.712-74.265 1.8308-0.66341 3.6616-1.3268 5.4924-1.9902z" fill="#15b3d7"/>
	<path d="m225.14 113.62c29.4 5.9722 90.326 39.436 70.004 66.218-32.785 8.9214-86.932-28.998-75.864-59.485 1.9534-2.2444 3.9068-4.4888 5.8601-6.7332z" opacity=".05"/>
	<path d="m227.5 112.46c29.4 5.9722 90.326 39.436 70.004 66.218-32.785 8.9214-86.932-28.998-75.864-59.485 1.9534-2.2444 3.9068-4.4888 5.8601-6.7332zm-24.25-12.7c-15.557-20.929-36.356-84.044-3.9608-84.29 26.819 13.136 43.764 81.146 9.8397 84.587-1.9596-0.09895-3.9193-0.1979-5.8789-0.29685z" fill="#15b3d7"/>
	<path d="m203.25 99.76c-15.557-20.929-36.356-84.044-3.9608-84.29 26.819 13.136 43.764 81.146 9.8397 84.587-1.9596-0.098949-3.9193-0.1979-5.8789-0.29685z" opacity=".05"/>
	<path d="m184.65 112.82c-25.689-4.5593-84.122-36.225-60.731-58.637 28.543-8.8295 87.463 29.036 65.167 54.845-1.4788 1.2639-2.9577 2.5278-4.4365 3.7918z" fill="#15b3d7"/>
	<path d="m184.65 112.82c-25.689-4.5593-84.122-36.225-60.731-58.637 28.543-8.8295 87.463 29.036 65.167 54.845-1.4788 1.2639-2.9577 2.5278-4.4365 3.7918z" opacity=".05"/>
	<path d="m193.46 124.34c-17.427 19.419-75.153 52.365-81.86 20.681 7.5618-28.906 70.787-58.99 80.976-26.437l0.88413 5.7564z" fill="#15b3d7"/>
	<path d="m193.46 124.34c-17.427 19.419-75.153 52.365-81.86 20.681 7.5618-28.906 70.787-58.99 80.976-26.437l0.88413 5.7564z" opacity=".05"/>
	<path d="m218.2 121.37c4.7628 25.654-4.3441 91.49-33.549 77.471-18.3-23.619-3.5643-92.087 28.438-80.291 1.7037 0.94006 3.4073 1.8801 5.111 2.8202z" fill="#15b3d7"/>
	<path d="m218.2 121.37c4.7628 25.654-4.3441 91.49-33.549 77.471-18.3-23.619-3.5643-92.087 28.438-80.291 1.7037 0.94006 3.4073 1.8801 5.111 2.8202z" opacity=".05"/>
	<path d="m227.5 112.46c29.4 5.9722 90.326 39.436 70.004 66.218-32.785 8.9214-86.932-28.998-75.864-59.485 1.9534-2.2444 3.9068-4.4888 5.8601-6.7332z" fill="#15b3d7"/>
	<path d="m227.5 112.46c29.4 5.9722 90.326 39.436 70.004 66.218-32.785 8.9214-86.932-28.998-75.864-59.485 1.9534-2.2444 3.9068-4.4888 5.8601-6.7332z" opacity=".05"/>
	<path d="m234.29 102.44c30.002 4e-3 96.364 20.673 81.786 50.965-30.355 15.27-90.953-11.113-86.185-43.197 1.4663-2.5893 2.9326-5.1787 4.3989-7.768z" opacity=".05"/>
	<path d="m235.47 96.54c30.002 0.0043 96.364 20.673 81.786 50.965-30.355 15.27-90.953-11.113-86.185-43.197 1.4663-2.5893 2.9326-5.1787 4.3989-7.768z" opacity=".05"/>
	<path d="m235.47 100.08c30.002 4e-3 96.364 20.673 81.786 50.965-30.355 15.27-90.953-11.113-86.185-43.197 1.4663-2.5893 2.9326-5.1787 4.3989-7.768z" fill="#15b3d7"/>
	<path d="m253.5 118.9c-7.4421 39.037-67.885 43.624-81.133 6.1573-16.582-34.148 24.769-73.318 57.962-55.267 18.124 8.2811 28.303 29.853 23.171 49.11z" fill="#f7931a"/>
	<path d="m731.22 146.45c15.511 28.212-18.812 60.186-46.39 61.455-24.509 2.4047-27.957-29.602-13.724-43.592 12.149-16.864 41.444-35.301 60.114-17.863z" fill="#15b3d7"/>
	<path d="m719.85 143.4c13.251-22.476 63.343-66.156 76.167-36.407-1.7062 29.828-57.762 71.797-74.161 41.891-0.66863-1.8283-1.3373-3.6566-2.0059-5.4849z" fill="#15b3d7"/>
	<path d="m711.37 147.69c0.72125-26.084 23.433-88.546 49.05-68.714 12.933 26.931-15.816 90.777-44.64 72.543-1.4698-1.2762-2.9397-2.5524-4.4095-3.8286z" opacity=".05"/>
	<path d="m708.73 147.62c0.72125-26.084 23.433-88.546 49.05-68.714 12.933 26.931-15.816 90.777-44.64 72.543-1.4698-1.2762-2.9397-2.5524-4.4095-3.8286z" fill="#15b3d7"/>
	<path d="m721.96 158.55c-28.441-15.449-3.3608-52.894 8.0092-73.327 47.904-50.531 34.901 58.966-8.0092 73.327z" opacity=".05"/>
	<path d="m724.33 93.56c18.82 20.275-10.346 92.314-14.514 42.286 2.7732-14.665 7.0353-29.282 14.514-42.286z" opacity=".05"/>
	<path d="m718.03 157.92c-34.436 0.71603-33.644-50.603-30.334-75.764 19.216-48.978 56.417 46.073 30.334 75.764z" fill="#15b3d7"/>
	<path d="m714.39 157.11c-31.837 5.8779-37.062-87.659-11.054-34.839 6.1255 10.662 9.4592 22.71 11.054 34.839z" opacity=".05"/>
	<path d="m695.56 165.34c-23.18-11.979-69.585-59.56-40.598-74.023 29.881 0.03891 74.903 53.677 45.957 71.717-1.7865 0.76867-3.5729 1.5374-5.3594 2.306z" fill="#15b3d7"/>
	<path d="m688.85 172.13c-25.745-4.2476-84.552-35.211-61.435-57.904 28.438-9.169 87.787 27.973 65.815 54.062-1.4601 1.2806-2.9202 2.5613-4.3803 3.8419z" opacity=".05"/>
	<path d="m686.73 173.16c-25.745-4.2476-84.552-35.211-61.435-57.904 28.438-9.169 87.787 27.973 65.815 54.062-1.4601 1.2806-2.9202 2.5613-4.3803 3.8419z" fill="#15b3d7"/>
	<path d="m684.59 182.62c-25.083 7.1865-91.485 4.3978-80.318-26.007 21.767-20.463 91.324-12.335 82.638 20.646-0.77355 1.7868-1.5471 3.5736-2.3207 5.3603z" opacity=".05"/>
	<path d="m684.57 185.24c-25.083 7.1865-91.485 4.3978-80.318-26.007 21.767-20.463 91.324-12.335 82.638 20.646-0.77355 1.7868-1.5471 3.5736-2.3207 5.3603z" fill="#15b3d7"/>
	<path d="m686.45 197.07c-19.708 17.09-81.072 42.591-83.785 10.329 11.092-27.739 77.587-49.732 83.628-16.166 0.0524 1.9459 0.10484 3.8918 0.15726 5.8377z" opacity=".05"/>
	<path d="m686.43 199.71c-19.708 17.09-81.072 42.591-83.785 10.329 11.092-27.739 77.587-49.732 83.628-16.166 0.0524 1.9459 0.10484 3.8918 0.15726 5.8377z" fill="#15b3d7"/>
	<path d="m694.4 190.62c-7.1281 25.1-44.527 80.038-64.467 54.512-5.9008-29.288 37.705-84.087 61.14-59.308 1.1091 1.5989 2.2182 3.1978 3.3272 4.7967z" opacity=".05"/>
	<path d="m697.55 191.72c-7.1281 25.1-44.527 80.038-64.467 54.512-5.9008-29.288 37.705-84.087 61.14-59.308 1.1091 1.5989 2.2182 3.1978 3.3272 4.7967z" fill="#15b3d7"/>
	<path d="m690.43 186.62c15.535 20.941 36.283 84.069 3.8856 84.284-26.817-13.159-43.642-81.209-9.7157-84.589 1.9434 0.10161 3.8867 0.20321 5.8301 0.30482z" opacity=".05"/>
	<path d="m694.12 186.08c15.535 20.941 36.283 84.069 3.8856 84.284-26.817-13.159-43.642-81.209-9.7157-84.589 1.9434 0.10161 3.8867 0.20321 5.8301 0.30482z" fill="#15b3d7"/>
	<path d="m716.36 179.22c15.535 20.941 36.283 84.069 3.8856 84.284-26.817-13.159-43.642-81.209-9.7157-84.589 1.9434 0.10161 3.8867 0.20321 5.8301 0.30482z" opacity=".05"/>
	<path d="m718.47 178.19c15.535 20.941 36.283 84.069 3.8856 84.284-26.817-13.159-43.642-81.209-9.7157-84.589 1.9434 0.10161 3.8867 0.20321 5.8301 0.30482z" fill="#15b3d7"/>
	<path d="m711.26 183.26c26.006 2.0973 87.186 28.062 66.035 52.596-27.575 11.5-89.827-20.588-70.089-48.401 1.3511-1.3981 2.7021-2.7962 4.0532-4.1943z" opacity=".05"/>
	<path d="m713.37 182.23c26.006 2.0973 87.186 28.062 66.035 52.596-27.575 11.5-89.827-20.588-70.089-48.401 1.3511-1.3981 2.7021-2.7962 4.0532-4.1943z" fill="#15b3d7"/>
	<path d="m721.31 168.19c29.035-7.544 98.464-4.2406 91.972 28.745-25.535 22.415-90.829 12.125-94.277-20.125 0.76857-2.8734 1.5371-5.7468 2.3057-8.6203z" opacity=".05"/>
	<path d="m722.91 166.1c29.035-7.544 98.464-4.2406 91.972 28.745-25.535 22.415-90.829 12.125-94.277-20.125 0.76857-2.8734 1.5371-5.7468 2.3057-8.6203zm-27.35-0.76c-23.18-11.979-69.585-59.56-40.598-74.023 29.881 0.03891 74.903 53.677 45.957 71.717-1.7865 0.76867-3.5729 1.5374-5.3594 2.306z" fill="#15b3d7"/>
	<path d="m695.56 165.34c-23.18-11.979-69.585-59.56-40.598-74.023 29.881 0.03891 74.903 53.677 45.957 71.717-1.7865 0.76867-3.5729 1.5374-5.3594 2.306z" opacity=".05"/>
	<path d="m684.57 185.24c-25.083 7.1865-91.485 4.3978-80.318-26.007 21.767-20.463 91.324-12.335 82.638 20.646-0.77355 1.7868-1.5471 3.5736-2.3207 5.3603z" fill="#15b3d7"/>
	<path d="m684.57 185.24c-25.083 7.1865-91.485 4.3978-80.318-26.007 21.767-20.463 91.324-12.335 82.638 20.646-0.77355 1.7868-1.5471 3.5736-2.3207 5.3603z" opacity=".05"/>
	<path d="m697.55 191.72c-7.1281 25.1-44.527 80.038-64.467 54.512-5.9008-29.288 37.705-84.087 61.14-59.308 1.1091 1.5989 2.2182 3.1978 3.3272 4.7967z" fill="#15b3d7"/>
	<path d="m697.55 191.72c-7.1281 25.1-44.527 80.038-64.467 54.512-5.9008-29.288 37.705-84.087 61.14-59.308 1.1091 1.5989 2.2182 3.1978 3.3272 4.7967z" opacity=".05"/>
	<path d="m718.47 178.19c15.535 20.941 36.283 84.069 3.8856 84.284-26.817-13.159-43.642-81.209-9.7157-84.589 1.9434 0.10161 3.8867 0.20321 5.8301 0.30482z" fill="#15b3d7"/>
	<path d="m718.47 178.19c15.535 20.941 36.283 84.069 3.8856 84.284-26.817-13.159-43.642-81.209-9.7157-84.589 1.9434 0.10161 3.8867 0.20321 5.8301 0.30482z" opacity=".05"/>
	<path d="m722.91 166.1c29.035-7.544 98.464-4.2406 91.972 28.745-25.535 22.415-90.829 12.125-94.277-20.125 0.76857-2.8734 1.5371-5.7468 2.3057-8.6203z" fill="#15b3d7"/>
	<path d="m722.91 166.1c29.035-7.544 98.464-4.2406 91.972 28.745-25.535 22.415-90.829 12.125-94.277-20.125 0.76857-2.8734 1.5371-5.7468 2.3057-8.6203z" opacity=".05"/>
	<path d="m724.65 154.11c26.955-13.175 95.654-23.75 95.858 9.8686-20.566 27.045-86.593 29.962-96.399-0.95585 0.18034-2.9709 0.36069-5.9418 0.54103-8.9127z" opacity=".05"/>
	<path d="m723.08 148.3c26.955-13.175 95.654-23.75 95.858 9.8686-20.566 27.045-86.593 29.962-96.399-0.95585 0.18034-2.9709 0.36069-5.9418 0.54103-8.9127z" opacity=".05"/>
	<path d="m724.65 151.48c26.955-13.175 95.654-23.75 95.858 9.8686-20.566 27.045-86.593 29.962-96.399-0.95585 0.18034-2.9709 0.36069-5.9418 0.54103-8.9127z" fill="#15b3d7"/>
	<path d="m749.1 160.47c10.46 38.338-41.825 69.007-70.183 41.167-29.898-23.396-9.9478-76.752 27.803-75.109 19.917-0.51786 38.533 14.39 42.38 33.942z" fill="#f7931a"/>
	<path d="m690.34 335.57c15.061 28.455-19.765 59.88-47.36 60.71-24.544 2.0151-27.483-30.043-13.03-43.804 12.416-16.669 42-34.638 60.39-16.906z" fill="#15b3d7"/>
	<path d="m678.99 332.23c13.598-22.275 64.377-65.154 76.735-35.208-2.1772 29.799-58.888 70.877-74.818 40.718-0.6393-1.8367-1.2786-3.6733-1.9179-5.51z" fill="#15b3d7"/>
	<path d="m670.44 336.39c1.1345-26.058 24.8-88.162 50.095-67.935 12.515 27.124-17.257 90.537-45.766 71.825-1.4431-1.2968-2.8861-2.5937-4.3292-3.8905z" opacity=".05"/>
	<path d="m667.8 336.32c1.1345-26.058 24.8-88.162 50.095-67.935 12.515 27.124-17.257 90.537-45.766 71.825-1.4431-1.2968-2.8861-2.5937-4.3292-3.8905z" fill="#15b3d7"/>
	<path d="m680.85 347.41c-28.188-15.902-2.538-52.945 9.1616-73.197 48.682-49.771 33.978 59.517-9.1616 73.197z" opacity=".05"/>
	<path d="m684.25 282.46c18.524 20.562-11.825 92.145-15.173 42.069 3.0161-14.621 7.5071-29.17 15.173-42.069z" opacity=".05"/>
	<path d="m676.93 346.72c-34.472 0.13727-32.899-51.121-29.182-76.269 19.971-48.679 55.756 46.97 29.182 76.269z" fill="#15b3d7"/>
	<path d="m673.31 345.86c-31.939 5.275-35.671-88.266-10.502-35.02 5.9558 10.761 9.1002 22.864 10.502 35.02z" opacity=".05"/>
	<path d="m654.35 353.79c-22.988-12.341-68.641-60.646-39.431-74.649 29.872 0.51346 74.05 54.839 44.826 72.427-1.7983 0.74093-3.5966 1.4818-5.3949 2.2228z" fill="#15b3d7"/>
	<path d="m647.54 360.47c-25.688-4.655-83.992-36.569-60.514-58.904 28.586-8.7131 87.333 29.339 64.975 55.105l-4.4618 3.7991z" opacity=".05"/>
	<path d="m645.4 361.47c-25.688-4.655-83.992-36.569-60.514-58.904 28.586-8.7131 87.333 29.339 64.975 55.105l-4.4618 3.7991z" fill="#15b3d7"/>
	<path d="m643.11 370.88c-25.197 6.788-91.534 2.9623-79.906-27.275 22.088-20.13 91.509-10.878 82.308 21.956-0.80095 1.773-1.6019 3.546-2.4028 5.319z" opacity=".05"/>
	<path d="m643.04 373.51c-25.197 6.788-91.534 2.9623-79.906-27.275 22.088-20.13 91.509-10.878 82.308 21.956-0.80095 1.773-1.6019 3.546-2.4028 5.319z" fill="#15b3d7"/>
	<path d="m644.75 385.37c-19.972 16.786-81.738 41.325-83.938 9.0039 11.521-27.569 78.417-48.504 83.883-14.848 0.0182 1.9479 0.0364 3.8958 0.0546 5.8438z" opacity=".05"/>
	<path d="m644.65 388.01c-19.972 16.786-81.738 41.325-83.938 9.0039 11.521-27.569 78.417-48.504 83.883-14.848 0.0182 1.9479 0.0364 3.8958 0.0546 5.8438z" fill="#15b3d7"/>
	<path d="m652.79 379.06c-7.518 24.983-45.79 79.332-65.314 53.471-5.4517-29.379 39.028-83.499 62.059-58.333 1.0851 1.6207 2.1702 3.2414 3.2554 4.8621z" opacity=".05"/>
	<path d="m655.92 380.19c-7.5194 24.983-45.788 79.337-65.314 53.481-5.4496-29.38 39.024-83.496 62.062-58.335 1.0841 1.6181 2.1681 3.2362 3.2522 4.8542z" fill="#15b3d7"/>
	<path d="m648.88 374.94c15.205 21.197 34.961 84.661 2.5612 84.382-26.604-13.601-42.361-81.846-8.3809-84.763l5.8197 0.38157z" opacity=".05"/>
	<path d="m652.59 374.5c15.205 21.197 34.961 84.661 2.5612 84.382-26.604-13.601-42.361-81.846-8.3809-84.763l5.8197 0.38157z" fill="#15b3d7"/>
	<path d="m674.93 367.99c15.205 21.197 34.961 84.661 2.5612 84.382-26.604-13.601-42.361-81.846-8.3809-84.763l5.8197 0.38157z" opacity=".05"/>
	<path d="m677.06 366.99c15.205 21.197 34.961 84.661 2.5612 84.382-26.604-13.601-42.361-81.846-8.3809-84.763l5.8197 0.38157z" fill="#15b3d7"/>
	<path d="m669.76 371.95c25.973 2.5052 86.731 29.44 65.193 53.639-27.754 11.066-89.49-21.997-69.319-49.5 1.3754-1.3796 2.7507-2.7592 4.126-4.1389z" opacity=".05"/>
	<path d="m671.9 370.95c25.973 2.5052 86.731 29.44 65.193 53.639-27.754 11.066-89.49-21.997-69.319-49.5 1.3754-1.3796 2.7507-2.7592 4.126-4.1389z" fill="#15b3d7"/>
	<path d="m680.05 357.04c29.153-7.087 98.523-2.692 91.516 30.188-25.886 22.011-91.008 10.695-93.954-21.607 0.81271-2.8603 1.6254-5.7206 2.4382-8.581z" opacity=".05"/>
	<path d="m681.65 354.97c29.153-7.087 98.523-2.692 91.516 30.188-25.886 22.011-91.008 10.695-93.954-21.607 0.81271-2.8603 1.6254-5.7206 2.4382-8.581zm-27.3-1.18c-22.988-12.341-68.641-60.646-39.431-74.649 29.872 0.51346 74.05 54.839 44.826 72.427-1.7983 0.74093-3.5966 1.4818-5.3949 2.2228z" fill="#15b3d7"/>
	<path d="m654.35 353.79c-22.988-12.341-68.641-60.646-39.431-74.649 29.872 0.51346 74.05 54.839 44.826 72.427-1.7983 0.74093-3.5966 1.4818-5.3949 2.2228z" opacity=".05"/>
	<path d="m643.04 373.51c-25.197 6.788-91.534 2.9623-79.906-27.275 22.088-20.13 91.509-10.878 82.308 21.956-0.80095 1.773-1.6019 3.546-2.4028 5.319z" fill="#15b3d7"/>
	<path d="m643.04 373.51c-25.197 6.788-91.534 2.9623-79.906-27.275 22.088-20.13 91.509-10.878 82.308 21.956-0.80095 1.773-1.6019 3.546-2.4028 5.319z" opacity=".05"/>
	<path d="m655.92 380.19c-7.5194 24.983-45.788 79.337-65.314 53.481-5.4496-29.38 39.024-83.496 62.062-58.335 1.0841 1.6181 2.1681 3.2362 3.2522 4.8542z" fill="#15b3d7"/>
	<path d="m655.92 380.19c-7.5194 24.983-45.788 79.337-65.314 53.481-5.4496-29.38 39.024-83.496 62.062-58.335 1.0841 1.6181 2.1681 3.2362 3.2522 4.8542z" opacity=".05"/>
	<path d="m677.06 366.99c15.205 21.197 34.961 84.661 2.5612 84.382-26.604-13.601-42.361-81.846-8.3809-84.763l5.8197 0.38157z" fill="#15b3d7"/>
	<path d="m677.06 366.99c15.205 21.197 34.961 84.661 2.5612 84.382-26.604-13.601-42.361-81.846-8.3809-84.763l5.8197 0.38157z" opacity=".05"/>
	<path d="m681.65 354.97c29.153-7.087 98.523-2.692 91.516 30.188-25.886 22.011-91.008 10.695-93.954-21.607 0.81271-2.8603 1.6254-5.7206 2.4382-8.581z" fill="#15b3d7"/>
	<path d="m681.65 354.97c29.153-7.087 98.523-2.692 91.516 30.188-25.886 22.011-91.008 10.695-93.954-21.607 0.81271-2.8603 1.6254-5.7206 2.4382-8.581z" opacity=".05"/>
	<path d="m683.58 343.02c27.155-12.746 96.013-22.249 95.683 11.373-20.986 26.72-87.056 28.59-96.366-2.4792 0.22768-2.9645 0.45535-5.9291 0.68303-8.8936z" opacity=".05"/>
	<path d="m682.14 337.18c27.155-12.755 96.013-22.251 95.683 11.373-20.986 26.72-87.056 28.59-96.366-2.4792 0.22768-2.9645 0.45535-5.9291 0.68303-8.8936z" opacity=".05"/>
	<path d="m683.65 340.38c27.161-12.745 96.018-22.234 95.693 11.383-20.99 26.72-87.048 28.59-96.371-2.4796 0.22621-2.9677 0.45243-5.9354 0.67865-8.9032z" fill="#15b3d7"/>
	<path d="m707.96 349.76c9.8708 38.494-42.879 68.358-70.806 40.086-29.543-23.857-8.7595-76.913 28.97-74.674 19.916-0.20355 38.291 14.986 41.837 34.588z" fill="#f7931a"/>
	<path d="m958.1 75.19c2.3301 42.923-57.183 67.091-85.421 34.654-31.065-28.726-6.5641-86.661 35.681-84.394 26.678-0.60954 50.349 23.064 49.74 49.74z" fill="#ffdf9c"/>
	<path d="m96.89 476.78c11.974 24.314-9.0017 50.117-3.5975 75.575-11.752 21.687-3.4817 40.021 8.2169 47.692-4.5042 24.7-13.725 47.961-30.866 66.581-10.417 25.158-18.21 51.881-29.623 67.304-17.516 32.069 88.412 26.932 36.349 4.1377-21.495-31.815 25.421-67.604 40.32-95.57 10.472-21.098 23.523-44.617 33.171-5.2287 11.796 24.229 9.3998 52.743 24.857 75.94 5.6424 7.7875 10.132 16.445 11.642 26.018-21.425 32.065 59.689 18.141 50.41-4.3525-13.143 4.3964-24.108-3.9533-34.456-8.2836-9.6239-10.434-10.307-30.48-16.224-44.139-9.2932-18.601-3.2384-38.423-9.7537-57.675-5.3746-26.61-14.025-52.211-15.436-79.55 13.684 5.875 44.302 38.274 36.59 6.3292-11.71-11.499-40.034-12.906-39.413-33.307-5.3557-27.451 0.30373-56.16-29.961-69.015 6.5348-7.4331-0.39856-24.675 15.548-24.717 17.35-6.5838 7.1664-27.306 12.866-36.06-11.362-36.71-67.093-15.917-72.759 13.612-2.5519 25.267-39.445 12.394-31.651 43.578-20.412 8.8258-21.279 39.069 4.64 31.97 19.712 10.915 42.365-32.605 39.13-0.84zm14.44 33.94c19.274 16.074-19.179 62.41-2.3989 19.152 1.372-6.2976 2.0075-12.745 2.3989-19.152z" fill="url(#b)"/>
	<path d="m103.18 487.27c-4.2765 25.349-9.1735 50.822-10.83 75.953-17.069 27.244 15.691 40.94 12.808 4.8966-2.4542-28.301 16.311-55.158-1.9777-80.85z" fill="#ffcdd3"/>
	<path d="m103.18 487.27c-4.2765 25.349-9.1735 50.822-10.83 75.953-17.069 27.244 15.691 40.94 12.808 4.8966-2.4542-28.301 16.311-55.158-1.9777-80.85z" opacity=".05"/>
	<path d="m165.25 577.91c7.1349 28.069 16.444 56.831 15.675 85.424 7.2214 21.436 11.841 44.911 22.967 63.991-13.526 43.491-34.871-36.776-42.832-52.743-1.8803-31.704-19.614-59.108-40.792-81.386-6.184-15.954 28.333-9.0643 40.666-14.625l2.443-0.37335z" fill="#ffcdd3"/>
	<path d="m116.95 585.33c16.409 26.919 42.483 51.129 43.463 85.41 9.1734 21.11 17.65 70.338 39.366 70.224 9.7809-22.219-12.945-43.014-15.417-66.414-7.4028-19.012-2.35-39.286-9.5611-58.768-4.9538-11.163-2.6932-35.342-14.446-37.112-14.468 2.2201-28.936 4.4402-43.404 6.6603z" opacity=".05"/>
	<path d="m49.15 722.4c12.347 25.382 28.968-2.351 28.05-20.58 14.446-27.034 34.158-49.91 49.94-76.01 9.6769-12.216 12.919-27.839 22.68-37.9h-44.5c-6.7191 24.313-9.649 51.401-28.932 69.655-14.494 19.303-14.259 44.852-27.238 64.835z" fill="#ffcdd3"/>
	<path d="m186.24 734.33c7.9354 22.745 26.245-8.3191 13.222-10.844 1.8186 7.507-4.7763 16.126-13.222 10.844z" opacity=".1"/>
	<path d="m199.81 726.48c0.0782-7.4141 8.7383-1.2665 10.417 1.7006 18.517 0.77619 44.629 8.2348 11.997 18.639-17.597 9.0159-44.878 15.816-38.004-13.329 4.5576 7.7866 19.656 0.94157 15.59-7.01z" fill="#dce6f2"/>
	<path d="m49.15 722.4c-1.5926 15.383 30.315 11.901 21.672-1.2077-6.4488-2.4516-10.284 10.818-18.143 3.2665-1.7179-6.5771-2.2054-3.3175-3.5288-2.0588z" opacity=".1"/>
	<path d="m66.65 722.48c8.8524-3.62 6.8384 17.291 18.386 14.246 33.641 26.388-68.852 18.918-39.364-13.114 0.70321-13.325 12.234 16.363 20.978-1.1324z" fill="#dce6f2"/>
	<path d="m138.65 426.11c-4.3978 24.287-20.469 45.818-32.136 18.513 11.373-20.246 5.8782-41.374 30.735-19.323z" fill="#ffcdd3"/>
	<path d="m96.82 591.13c29.131 13.463 86.436 13.12 66.173-31.225-0.43085-28.778-10.54-56.66-8.3098-85.329-11.9-14.205-49.286-48.388-58.17-15.384-7.4087 32.8 39.873 62.369 9.7789 90.776-7.9127 12.063-9.5912 27.07-9.4717 41.163z" fill="#ff8aa1"/>
	<path d="m142.12 566.62c-9.1677 23.708 21.489 44.103 24.506 15.705-2.4152-30.464-5.0989-49.326-23.848-16.544z" opacity=".05"/>
	<path d="m108.48 492.54c0.68382 20.491 46.388 68.483 52.235 46.548-12.871-18.262-34.954-33.835-38.078-60.877-14.885-17.712-26.495-0.51759-14.157 14.329z" opacity=".1"/>
	<path d="m124.9 477.78c2.4764 27.777 20.491 45.265 43.789 57.515 18.764 3.708 49.124 38.518 13.639 26.467-16.718-23.107-56.619-21.3-64.475-53.375-10.041-13.195-28.075-60.209 7.0475-30.607z" fill="#ffcdd3"/>
	<path d="m129.14 484.62c-8.7032-13.812-47.955-7.9087-21.19-25.31 13.036 3.5614 15.653 14.455 21.19 25.31z" opacity=".1"/>
	<path d="m129.14 483.62c-8.7032-13.812-47.955-7.9087-21.19-25.31 13.036 3.5614 15.653 14.455 21.19 25.31z" fill="#ff8aa1"/>
	<path d="m154.08 484.62c-3.8205 1.705-8.4361 1.4008-12-0.79m-22.74-69.58c-11.32-2.332 36.412 19.834 8.8495 15.569-4.028-4.5912-5.0923-10.811-8.8495-15.569z" opacity=".1"/>
	<path d="m156.15 407.92c1.3985 25.826-39.68 31.375-45.24 6.1338-8.1597-24.134 29.028-40.676 41.588-18.523 2.3738 3.6656 3.6595 8.0224 3.6525 12.389z" fill="#ffcdd3"/>
	<path d="m143.45 408.32c-21.213 14.56 1.4009 54.796-37.44 47.73-11.584 32.854-96.989 31.632-49.82-7.03-4.7888-32.974 37.704-22.372 37.071-56.557 12.468-29.862 85.792-15.765 52.291 10.139-1.0933 1.7297-1.8148 3.6928-2.1018 5.7186z" opacity=".1"/>
	<path d="m142.39 407.79c-21.213 14.56 1.4009 54.796-37.44 47.73-11.584 32.854-96.989 31.632-49.82-7.03-4.7888-32.974 37.704-22.372 37.071-56.557 12.468-29.862 85.792-15.765 52.291 10.139-1.0933 1.7297-1.8148 3.6928-2.1018 5.7186zm68.7-80.17c44.76 66.512-1.6644-76.111 0 0zm64.31 69.47c2.6789 80.119 38.937-65.388 0 0zm463.86 79.71c-35.206 72.014 65.08-39.451 0 0z" fill="#15b3d7"/>
	<g fill="#f1f1f1" font-family="'Century Schoolbook L'" font-size="61.563px" font-weight="bold" letter-spacing="0px" stroke-width="1.5391" word-spacing="0px">
		<text transform="rotate(-19.141)" x="145.81944" y="191.70328" style="font-feature-settings:normal;font-variant-caps:normal;font-variant-ligatures:normal;font-variant-numeric:normal;line-height:1.25" xml:space="preserve"><tspan x="145.81944" y="191.70328" fill="#f1f1f1" stroke-width="1.5391">$</tspan></text>
		<text transform="rotate(-21.928)" x="312.65488" y="456.24826" style="font-feature-settings:normal;font-variant-caps:normal;font-variant-ligatures:normal;font-variant-numeric:normal;line-height:1.25" xml:space="preserve"><tspan x="312.65488" y="456.24826" fill="#f1f1f1" stroke-width="1.5391">$</tspan></text>
		<text transform="rotate(7.1194)" x="704.23932" y="99.574738" style="font-feature-settings:normal;font-variant-caps:normal;font-variant-ligatures:normal;font-variant-numeric:normal;line-height:1.25" xml:space="preserve"><tspan x="704.23932" y="99.574738" fill="#f1f1f1" stroke-width="1.5391">$</tspan></text>
		<text transform="rotate(23.629)" x="735.38324" y="79.901573" style="font-feature-settings:normal;font-variant-caps:normal;font-variant-ligatures:normal;font-variant-numeric:normal;line-height:1.25" xml:space="preserve"><tspan x="735.38324" y="79.901573" fill="#f1f1f1" stroke-width="1.5391">$</tspan></text>
	</g>
</svg>
