<svg data-name="Layer 1" viewBox="0 0 973.3 761.25" xmlns="http://www.w3.org/2000/svg" xmlns:xlink="http://www.w3.org/1999/xlink"><defs><linearGradient id="a" x1="572.47" x2="572.47" y1="806.15" y2="69.38" gradientUnits="userSpaceOnUse"><stop stop-color="gray" stop-opacity=".25" offset="0"/><stop stop-color="gray" stop-opacity=".12" offset=".54"/><stop stop-color="gray" stop-opacity=".1" offset="1"/></linearGradient><linearGradient id="c" x1="1361.3" x2="1361.3" y1="830.62" y2="437.76" gradientTransform="matrix(-1 0 0 1 1500.6 -69.38)" xlink:href="#a"/><linearGradient id="b" x1="572.47" x2="572.47" y1="806.15" y2="69.38" gradientTransform="translate(-113.35 -69.38)" gradientUnits="userSpaceOnUse" xlink:href="#a"/></defs><path d="M917.26 480.46c-38.14 51.787-14.599 118.7 8.454 171.43 23.372 51.148-37.069 89.753-82.4 87.633-53.874 4.483-94.576-34.619-130.31-68.974-56.482-50.303-139.32-33.851-202.81-7.587-41.942 18.309-99.988 30.952-134.04-8.789-29.572-25.745-23.278-77.09-62.787-93.025-78.776-38.54-181.52-9.164-248.36-75.256C-8.14 413.757-4.36 302.612 4.491 207.962c1.835-50.589 34.62-102.38 87.984-109.11 76.783-13.983 140.19 42.662 194.42 88.25 38.705 34.822 91.543 48.207 142.53 41.405 98.255-6.855 196.82 7.291 293.34 24.258 55.764 7.902 100.97 42.336 150.81 65.075 42.407 10.616 96.32 33.43 99.716 83.89 1.137 36.696-36.1 53.87-56.035 78.731z" fill="#15b3d7" opacity=".1"/><path d="M764.55 629.37c-28.752-17.553 25.192-40.115 34.399-60.647 10.965-13.265 77.786-39.23 28.438-28.944-50.69 11.577-92.19-27.123-141.92-24.077-20.492 2.054 8.596-22.8 14.316-29.493 3.881-4.383 17.926-13.759 5.97-7.06-30.758 10.935-62.531-3.837-93.34-6.84l22.73-44.12c6.5 18.218 37.766 48.538 42.31 14.43 31.03 34.932 14.325-44.535 46.367-20.413 24.356 5.909 41.871-10.472 18.063-28.587 31.11 3.663 56.865-21.644 37.756-37.103 42.949-29.711-27.024-34.078-26.159-42.266 23.47-23.554 7.053-48.674-22.857-28.641 3.358-16.052-12.279-36.191 7.68-25.49 11.865-22.611 4.864-40.601 36.124-30.066 39.497 3.98 13.959-27.063 16.174-29.036 18.296.537 60.728-19.922 27.013-34.267 55.24-30.275-29.598-39.62-22.208-45.082 23.1-23.918 6.236-48.793-23.312-28.238 11.191-58.122-36.216-16.162-44.155-12.86-13.392-39.884-42.433-16.76-35.525 14.89-15.129-14.663-56.067-24.431-39.13 9.46-29.805-10.371-43.066 13.552-16.6 32.14-34.199.023-48.33 32.793-6.76 39.54-30.94 13.196-36.382 52.184 7.53 40.23-2.383 31.491-26.722 59.595-46.667 78.178-16.998 8.976-51.806-22.843-20.354-27.989 32.897-22.109-11.689-34.331-16.472-33.649 28.879-53.306-38.976-16.667-37.027-24.737 5.618-41.718-30.748-33.387-38.55-2.083-7.174-19.936-39.54-45.987-39.38-8.42-22.217-22.144-44.581-6.553-29.27 21.73-30.652-14.721-57.792 8.376-23.51 32.6-33.433-1.596-56.12 30.89-11.13 39.37-33.04 25.552 2.886 43.275 28.6 29.12-5.122 19.68 10.385 69.045 31.43 38.04 4.045 36.719 35.126-15.774 26.8 21.985 1.562 65.87.618 132.55-13.53 197.17-22.919-89.544-41.23-182.9-93.396-261.11-30.761-50.173-62.332-99.91-96.654-147.74 28.203 12.853 49.4-3.459 41.799-21.175 51.568-8.897-9.504-41.991-5.403-49.305 31.382-11.395 27.42-41.097-8.436-35.45 28.615-33.897-10.135-46.911-34.05-23.9 9.03-41.806-28.283-46.764-38.37-8.7-7.174-19.936-39.54-45.987-39.38-8.42-22.217-22.14-44.595-6.562-29.28 21.73-30.614-14.723-58.037 8.292-23.65 32.6-33.43-1.566-56.087 30.93-11.11 39.4-33.04 25.552 2.886 43.275 28.6 29.12-5.122 19.68 10.385 69.045 31.43 38.04 14.12 44.526 32.931-36.187 53.734 2.544 36.908 4.986 46.678 47.47 68.19 73.258 53.544 84.189 93.361 176.63 124.78 271.12-28.699-34.373-52.284-80.283-105.92-59.125-35.556 1.038-75.71 23.87-109.49 4.884 13.346 11.322 27.6 23.498 35 39.83-50.97-6.96-92.633 33.426-143.64 24.587-22.869-2.497-39.07-6.026-8.902 8.29 27.963 15.706 71.517 53.842 74.724 75.238-29.711 34.713-71.297 57.989-110.43 78.895 42.482 2.13 83.995 13.109 125.6 19.17 38.608 1.813 74.504-15.93 112.53-16.58 19.969-3.868 31.405 23.8 4.396 22.818-37.72 12.652 6.778 6.979 19.663 8.172 111.29.302 222.68-.601 333.91.45-22.295-11.149-70.924-23.015-21.217-30.984 50.346-1.862 100.94 28.008 151.21 10.711 24.722-8.753 79.15-8.637 92.064-15.464-36.518-19.703-73.9-40.652-102.13-71.683zm-42.75-377.8c-.942.915-.41-1.334 0 0zm-150.89 83.35c-27.691 3.512 8.945-25.363 7.982-12.555l-2.71 4.242zm6.74 28.11c22.244 2.29-31.395 38.475 0 0zm-98.8 126.59c7.091-39.051-3.817-107.19 8.044-129.03 19.769 15.458 40.94 6.655 27.666-18.87 20.546 12.527 66.973-5.843 33.575 29.778-40.092 57.582-54.454 127.45-74.875 193.39a2779.884 2779.884 0 0 0 5.59-75.27zm59.33-12.22c-9.043 18.603-43.803 60.205-20.794 16.751 18.205-34.816 36.052-118.7 75.079-80.847-16.167 28.155 20.24 19.879 12.41 31.495-6.94 45.845-43.348 8.86-66.695 32.601zm184.47-224.16c-2.43-2.825 2.465-.24 0 0zm-69.12-7.27c25.44-26.287 26.22 1.023 46.88 17.33-12.982 41.846-33.467-48.843-47.089.189-1.807 21.047-1.902 26.232-21.391 12.13 7.042-9.988 14.36-19.898 21.6-29.65z" fill="url(#b)"/><path d="M435.02 550.67c-35.528-21.653-44.554-84.093-92.464-77.87-43.435-2.553-86.547 23.798-129.2 9.589 6.985 1.096 30.857 42.41 44.14 58.958 34.428 27.468 77.231 42.169 113.66 65.586l63.863 59.688c13.276-7.248 31.474-12.334 20.137-30.39l-20.137-85.56z" fill="#15b3d7"/><path d="M459.12 653.08c-13.088 7.57-26.804 20.374-36.753 1.743-27.408-22.914-49.098-54.11-83.952-66.168-32.009-19.447-75.294-31.502-93.919-65.511-4.209-25.625-59.254-51.678-10.27-36.214 46.877.075 95.197-25.358 141.19-8.737 13.314 33.338 51.866 51.366 62.435 84.525l21.269 90.362z" opacity=".05"/><path d="M427.49 648.56c-19.125 2.973-28.281-19.301-42.521-28.701-25.115-28.351-64.312-36.05-94.905-57.045-21.972-6.92-81.121-61.402-20.704-46.763 30.631 31.622 71.247 50.324 111.75 49.928 25.485 20.019 36.505 52.983 46.381 82.582z" opacity=".1"/><path d="M425.99 653.08c-70.838 1.018-141.56-3.784-212.34-6-42.686-17.872-66.793-56.461-100.84-84.049-13.385-11.151-58.689-29.353-15.954-20.104 50.829 11.366 92.288-28.594 142.5-23.724 45.736-7.933 72.644 57.959 117.8 46.842 43.486-2.363 55.898 57.521 68.834 87.036zm52.66-102.41c35.528-21.653 44.554-84.093 92.464-77.87 43.435-2.553 86.547 23.798 129.2 9.589-6.985 1.096-30.857 42.41-44.14 58.958-34.428 27.468-77.231 42.169-113.66 65.586l-63.863 59.688c-13.276-7.248-31.474-12.334-20.137-30.39l20.137-85.56z" fill="#15b3d7"/><path d="M704.54 479.93c-32.831 21.32-36.111 66.13-75.539 79.789-32.313 22.715-74.009 30.892-100.9 60.774-16.466 15.394-32.924 30.797-49.45 46.127-13.276-7.248-31.474-12.334-20.137-30.389 7.926-28.97 11.939-60.105 22.287-87.734 36.014-23.806 46.372-89.159 99.247-75.223 41.291-1.526 85.009 26.154 124.49 6.657z" opacity=".05"/><path d="M429.54 634.62c-13.523 11.559 16.229 20.534 2.67 36.742 25.012 16.509 45.745-9.983 53.07-27.052 16.559-37.623-13.316-29.906-43.319-32.638-15.508-4.332-4.85 17.534-12.421 22.948zm243.27-120c-10.625 36.385-53.122 47.755-82.236 66.312-24.094 11.466-48.447 22.205-66.085 42.927-12.929 9.076-21.578 29.001-39.769 24.741 12.153-33.376 30.898-101.15 78.31-82.87 41.618-8.59 67.158-56.027 109.78-51.11z" opacity=".1"/><path d="M838.65 540.13c-39.217 15.93-64.043 48.561-92.77 76.74-22.388 17.382-45.743 35.462-75.404 31.326-60.907 2.065-121.78 5.871-182.75 4.854 10.711-39.926 36.373-100.89 86.121-85.907 43.741-15.004 72.169-63.124 123.32-46.973 45.982 9.1 89.897 34.496 138.69 20.435z" fill="#15b3d7"/><g fill="#635151"><path d="M695.55 193.01c-62.877 74.06-117.42 155.7-154.03 246-40.301 92.195-83.03 188.07-85.413 290.29-36.583 17.191-24.417-12.868-15.839-39.15 25.393-92.998 45.925-188.18 83.821-277.09 48.721-79.627 94.743-162.36 157.56-231.97 17.51-21.079 13.736-3.045 13.9 11.919z"/><path d="M478.29 493.45c-4.991 68.755-5.48 139.28-32.364 203.99 4.03 18.814-27.232 58.727-30.309 30.824 17.631-68.12 32.912-137.08 42.422-206.78 6.968-60.668 3.412-123.04 2.979-183.03 20.377-39.711 19.197 28.2 20.264 45.501.742 36.523-.888 73.049-2.992 109.5zm184.55-118.26c-50.882 83.163-91.005 173.1-114.04 267.96-15.512 26.888-6.593 82.781-33.23 93.485-20.729-17.465 9.042-80.228 10.582-112.04 34.493-87.188 68.772-175.61 118.56-255.42 18.089-25.948 14.463-14.06 18.127 6.02z"/><path d="M203.11 131.27c76.869 99.05 143.66 206.64 187.72 324.46 25.712 67.928 51.414 138.37 51.722 211.9 35.114 16.672 25.187-11.764 17.615-37.394-21.387-84.637-36.332-172.15-72.382-252.18-44.479-84.382-96.141-165.39-154.51-240.84-15.983-15.462-35.466-48.266-30.164-5.955zm436.21 605.85c-119.89-.98-239.97-.294-359.92-.34 69.328-33.582 149.55-33.038 225.02-30.314 45.745 3.76 94.071 8.102 134.9 30.654z"/></g><path d="M425.99 653.08c-70.838 1.018-141.56-3.784-212.34-6-23.2-12.687-62.621-33.105-16.728-44.396 36.893-28.845 90.454 22.203 117.07-12.958 39.964-29.697 112.37 17.2 112 63.355z" opacity=".1"/><path d="M438.03 635.76c-31.144-24.37-67.338-56.044-109.67-50.018-26.989 40.424-68.477 6.321-107.74 14.82-47.505 4.302-69.257 51.366-108.08 72.304-13.606 14.149-80.973 35.059-27.508 33.273 48.052 3.26 94.436 25.427 142.78 11.497 37.523-13.9 78.299-11.275 114.7-4.822 33.346-13.638 66.692-27.276 100.04-40.913l-4.52-36.14z" fill="#15b3d7"/><path d="M442.55 671.9l-106.9 43.72c-50.579-24.654-101.56 8.754-153.4 6.878-36.739-7.409-92.891-15.219-119.03-20.592 41.467-21.257 80.496-47.88 111.79-82.584 37.185-31.417 84.337-16.73 126.29-11.832 20.633-35.054 68.795-23.094 97.298-1.108 20.676 13.193 45.676 26.282 42.525 54.133l1.427 11.384z" opacity=".05"/><path d="M745.83 616.88c-22.388 17.382-45.743 35.462-75.404 31.326-60.89 2.063-121.75 5.87-182.7 4.854 3.627-54.93 95.184-100.97 129.21-50.1 40.78-4.05 85.665-19.486 122.72 9.307z" opacity=".1"/><path d="M480.2 635.76c31.144-24.37 67.338-56.044 109.67-50.018 26.989 40.424 68.477 6.321 107.74 14.82 47.505 4.302 69.257 51.366 108.08 72.304 13.601 14.148 80.972 35.056 27.514 33.274-48.052 3.265-94.43 25.453-142.78 11.516-37.504-13.884-78.255-11.292-114.64-4.84L475.644 671.9l4.55-36.14z" fill="#15b3d7"/><path d="M858.19 703.53c-47.392.137-92.595 20.834-139.57 17.843-45.492-2.522-91.38-28.422-135.97-5.753l-107-43.72c2.581-20.735.913-44.186 25.191-52.702 28.468-18.97 68.011-49.265 101.96-26.3 24.089 37.992 74.814-13.118 110.4 11.425 42.461 13.993 64.561 57.994 105.06 76.615 13.008 8.042 26.307 15.629 39.925 22.592z" opacity=".05"/><path d="M605.92 708.62c-21.674 14.685-41.546-1.915-62.162-8.891l-68.108-27.83c-4.288-42.97 53.371-13.367 77.596-11.091 21.822 4.897 58.3 20.939 52.674 47.812zM442.55 671.9l-106.9 43.72c-36.932 3.08-42.416-21.616-17.265-42.072 33.984-26.989 81.102-24.2 121.83-20.328l2.33 18.68z" opacity=".1"/><g fill="#15b3d7"><path d="M602.51 709.31c-19.454 16.748-46.135 30.465-73.094 27.37-56.75-.5-114.69 1.001-170.7-.75-38.375 5.894-76.394-38.448-30.512-63.594 39.194-25.512 89.129-18.295 132.4-14.939 35.799-13.199 74.928 4.205 110.01 13.072 13.04 8.996 34.839 19.973 31.89 38.84zM500.59 271.87c1.54 32.158-43.34 45.803-68.672 34.827-23.074-8.607-12.11-38.875 6.822-45.189 18.323-9.812 52.739-13.505 61.85 10.362z"/><path d="M491.73 264.03c21.778-14.373 85.963-31.611 84.423.744-14.633 26.051-83.428 39.136-85.029 5.066l.607-5.81z"/></g><path d="M482.22 264.16c12.105-23.115 59.938-69.254 74.243-40.194-.21 29.88-54.095 74.581-71.977 45.538l-2.266-5.344z" opacity=".05"/><path d="M479.86 262.98c12.098-23.12 59.934-69.278 74.243-40.194-.21 29.88-54.095 74.581-71.977 45.538l-2.266-5.344z" fill="#15b3d7"/><path d="M486.96 278.56c-18.759-26.38 20.212-49.002 39.417-62.354 65.219-24.367 5.444 68.31-39.417 62.354z" opacity=".05"/><path d="M517.65 221.22c8.01 26.471-49.812 78.385-31.627 31.619 8.926-11.969 19.182-23.232 31.627-31.619z" opacity=".05"/><path d="M483.71 276.27c-31.312-14.466-8.041-60.238 5.973-81.416 38.797-35.576 30.536 66.178-5.973 81.416z" fill="#15b3d7"/><path d="M480.8 273.95c-31.186-8.635 5.2-95.019 5.37-36.154.82 12.269-1.478 24.556-5.37 36.154z" opacity=".05"/><path d="M460.26 273.07c-15.557-20.929-36.356-84.044-3.96-84.29 26.818 13.136 43.763 81.146 9.839 84.587l-5.879-.297z" fill="#15b3d7"/><path d="M451.26 276.22c-21.27-15.117-60.485-68.782-29.716-79 29.585 4.233 66.602 63.705 35.388 77.466l-5.672 1.534z" opacity=".05"/><path d="M448.9 276.22c-21.258-15.125-60.5-68.774-29.756-79 29.586 4.238 66.6 63.696 35.39 77.473l-5.634 1.527z" fill="#15b3d7"/><path d="M442.83 283.77c-25.689-4.56-84.122-36.225-60.731-58.637 28.543-8.83 87.463 29.036 65.167 54.845l-4.437 3.792z" opacity=".05"/><path d="M441.65 286.12c-25.689-4.56-84.122-36.225-60.731-58.637 28.543-8.83 87.463 29.036 65.167 54.845l-4.436 3.792z" fill="#15b3d7"/><path d="M438.15 297.62c-25.214 6.708-91.552 2.668-79.812-27.52 22.15-20.048 91.535-10.607 82.232 22.206l-2.42 5.314z" opacity=".05"/><path d="M436.97 299.94c-25.214 6.708-91.552 2.668-79.812-27.52 22.15-20.048 91.535-10.607 82.232 22.206l-2.42 5.314z" fill="#15b3d7"/><path d="M448.11 295.29c-17.427 19.422-75.158 52.354-81.86 20.661 7.56-28.905 70.79-58.99 80.974-26.437l.886 5.776z" opacity=".05"/><path d="M450.47 297.62c-17.427 19.422-75.158 52.354-81.86 20.661 7.56-28.905 70.79-58.99 80.974-26.437l.886 5.776z" fill="#15b3d7"/><path d="M446.33 289.9c4.763 25.654-4.344 91.49-33.549 77.471-18.3-23.619-3.564-92.087 28.438-80.291l5.111 2.82z" opacity=".05"/><path d="M449.86 291.07c4.763 25.654-4.344 91.49-33.549 77.471-18.3-23.619-3.564-92.087 28.438-80.291l5.111 2.82z" fill="#15b3d7"/><path d="M472.85 294.68c4.763 25.654-4.344 91.49-33.549 77.471-18.3-23.619-3.564-92.087 28.438-80.291l5.111 2.82z" opacity=".05"/><path d="M475.21 294.68c4.763 25.654-4.344 91.49-33.549 77.471-18.3-23.619-3.564-92.087 28.438-80.291l5.111 2.82z" fill="#15b3d7"/><path d="M466.5 296.07c22.436 13.298 65.999 63.483 36.219 76.225-29.82-1.765-71.671-57.974-41.705-74.247l5.486-1.978z" opacity=".05"/><path d="M468.85 296.07c22.438 13.296 66.01 63.48 36.229 76.225-29.821-1.766-71.67-57.971-41.706-74.249l5.477-1.976z" fill="#15b3d7"/><path d="M482.15 286.94c29.4 5.972 90.326 39.436 70.004 66.218-32.785 8.921-86.932-28.998-75.864-59.485l5.86-6.733z" opacity=".05"/><path d="M484.51 285.76c29.4 5.972 90.326 39.436 70.004 66.218-32.785 8.921-86.932-28.998-75.864-59.485l5.86-6.733zm-24.25-12.69c-15.557-20.929-36.356-84.044-3.96-84.29 26.818 13.136 43.763 81.146 9.839 84.587l-5.879-.297z" fill="#15b3d7"/><path d="M460.26 273.07c-15.557-20.929-36.356-84.044-3.96-84.29 26.818 13.136 43.763 81.146 9.839 84.587l-5.879-.297z" opacity=".05"/><path d="M441.65 286.12c-25.689-4.56-84.122-36.225-60.731-58.637 28.543-8.83 87.463 29.036 65.167 54.845l-4.436 3.792z" fill="#15b3d7"/><path d="M441.65 286.12c-25.689-4.56-84.122-36.225-60.731-58.637 28.543-8.83 87.463 29.036 65.167 54.845l-4.436 3.792z" opacity=".05"/><path d="M450.47 297.62c-17.427 19.422-75.158 52.354-81.86 20.661 7.56-28.905 70.79-58.99 80.974-26.437l.886 5.776z" fill="#15b3d7"/><path d="M450.47 297.62c-17.427 19.422-75.158 52.354-81.86 20.661 7.56-28.905 70.79-58.99 80.974-26.437l.886 5.776z" opacity=".05"/><path d="M475.21 294.68c4.763 25.654-4.344 91.49-33.549 77.471-18.3-23.619-3.564-92.087 28.438-80.291l5.111 2.82z" fill="#15b3d7"/><path d="M475.21 294.68c4.763 25.654-4.344 91.49-33.549 77.471-18.3-23.619-3.564-92.087 28.438-80.291l5.111 2.82z" opacity=".05"/><path d="M484.51 285.76c29.4 5.972 90.326 39.436 70.004 66.218-32.785 8.921-86.932-28.998-75.864-59.485l5.86-6.733z" fill="#15b3d7"/><path d="M484.51 285.76c29.4 5.972 90.326 39.436 70.004 66.218-32.785 8.921-86.932-28.998-75.864-59.485l5.86-6.733z" opacity=".05"/><path d="M491.3 275.74c30.002.004 96.364 20.673 81.786 50.965-30.355 15.27-90.953-11.113-86.185-43.197l4.399-7.768z" opacity=".05"/><path d="M492.48 269.85c30.002.004 96.364 20.673 81.786 50.965-30.355 15.27-90.953-11.113-86.185-43.197l4.399-7.768z" opacity=".05"/><path d="M492.48 273.39c30.002.004 96.364 20.673 81.786 50.965-30.355 15.27-90.953-11.113-86.185-43.197l4.399-7.768z" fill="#15b3d7"/><path d="M510.51 292.21c-7.442 39.037-67.885 43.624-81.133 6.157-16.582-34.148 24.769-73.318 57.962-55.267 18.124 8.281 28.303 29.853 23.171 49.11z" fill="#f7931a"/><path d="M243.59 98.543c1.54 32.158-43.34 45.803-68.672 34.827-23.074-8.607-12.11-38.875 6.822-45.189 18.323-9.812 52.739-13.505 61.85 10.362z" fill="#15b3d7"/><path d="M234.72 90.73c21.778-14.373 85.963-31.611 84.423.744-14.633 26.051-83.428 39.136-85.029 5.066l.607-5.81z" fill="#15b3d7"/><path d="M225.21 90.85c12.105-23.115 59.938-69.254 74.243-40.194-.21 29.88-54.095 74.581-71.977 45.538l-2.266-5.344z" opacity=".05"/><path d="M222.85 89.67c12.105-23.115 59.938-69.254 74.243-40.194-.21 29.88-54.095 74.581-71.977 45.538l-2.266-5.344z" fill="#15b3d7"/><path d="M229.95 105.25c-18.761-26.382 20.242-48.981 39.427-62.354 65.213-24.371 5.434 68.319-39.427 62.354z" opacity=".05"/><path d="M260.65 47.91c8.013 26.463-49.806 78.38-31.627 31.633 8.933-11.967 19.194-23.225 31.627-31.633z" opacity=".05"/><path d="M226.65 102.97c-31.224-14.539-7.995-60.23 6.022-81.416 38.82-35.572 30.505 66.19-6.022 81.416z" fill="#15b3d7"/><path d="M223.79 100.62c-31.189-8.646 5.21-95.028 5.37-36.135.82 12.263-1.476 24.545-5.37 36.135z" opacity=".05"/><path d="M203.25 99.76c-15.557-20.929-36.356-84.044-3.96-84.29 26.818 13.136 43.763 81.146 9.839 84.587l-5.879-.297z" fill="#15b3d7"/><path d="M194.25 102.92c-21.258-15.125-60.5-68.774-29.756-79 29.586 4.238 66.6 63.696 35.39 77.473l-5.634 1.527z" opacity=".05"/><path d="M191.89 102.92c-21.258-15.125-60.5-68.774-29.756-79 29.586 4.238 66.6 63.696 35.39 77.473l-5.634 1.527z" fill="#15b3d7"/><path d="M185.82 110.46c-25.689-4.56-84.122-36.225-60.731-58.637 28.543-8.83 87.463 29.036 65.167 54.845l-4.436 3.792z" opacity=".05"/><path d="M184.65 112.82c-25.689-4.56-84.122-36.225-60.731-58.637 28.543-8.83 87.463 29.036 65.167 54.845l-4.436 3.792z" fill="#15b3d7"/><path d="M181.14 124.27c-25.214 6.708-91.552 2.668-79.812-27.52 22.15-20.048 91.535-10.607 82.232 22.206l-2.42 5.314z" opacity=".05"/><path d="M179.96 126.62c-25.214 6.708-91.552 2.668-79.812-27.52 22.15-20.048 91.535-10.607 82.232 22.206l-2.42 5.314z" fill="#15b3d7"/><path d="M191.1 121.98c-17.427 19.422-75.158 52.354-81.86 20.661 7.56-28.905 70.79-58.99 80.974-26.437l.886 5.776z" opacity=".05"/><path d="M193.46 124.34c-17.427 19.419-75.153 52.365-81.86 20.681 7.562-28.906 70.787-58.99 80.976-26.437l.884 5.756z" fill="#15b3d7"/><path d="M189.32 116.62c4.763 25.654-4.344 91.49-33.549 77.471-18.3-23.619-3.564-92.087 28.438-80.291l5.111 2.82z" opacity=".05"/><path d="M192.85 117.77c4.763 25.654-4.344 91.49-33.549 77.471-18.3-23.619-3.564-92.087 28.438-80.291l5.111 2.82z" fill="#15b3d7"/><path d="M215.84 121.37c4.763 25.654-4.344 91.49-33.549 77.471-18.3-23.619-3.564-92.087 28.438-80.291l5.111 2.82z" opacity=".05"/><path d="M218.2 121.37c4.763 25.654-4.344 91.49-33.549 77.471-18.3-23.619-3.564-92.087 28.438-80.291l5.111 2.82z" fill="#15b3d7"/><path d="M209.49 122.76c22.442 13.306 65.998 63.506 36.219 76.255-29.825-1.776-71.662-57.95-41.712-74.265l5.492-1.99z" opacity=".05"/><path d="M211.84 122.76c22.442 13.306 65.998 63.506 36.219 76.255-29.825-1.776-71.662-57.95-41.712-74.265l5.492-1.99z" fill="#15b3d7"/><path d="M225.14 113.62c29.4 5.972 90.326 39.436 70.004 66.218-32.785 8.921-86.932-28.998-75.864-59.485l5.86-6.733z" opacity=".05"/><path d="M227.5 112.46c29.4 5.972 90.326 39.436 70.004 66.218-32.785 8.921-86.932-28.998-75.864-59.485l5.86-6.733zm-24.25-12.7c-15.557-20.929-36.356-84.044-3.96-84.29 26.818 13.136 43.763 81.146 9.839 84.587l-5.879-.297z" fill="#15b3d7"/><path d="M203.25 99.76c-15.557-20.929-36.356-84.044-3.96-84.29 26.818 13.136 43.763 81.146 9.839 84.587l-5.879-.297z" opacity=".05"/><path d="M184.65 112.82c-25.689-4.56-84.122-36.225-60.731-58.637 28.543-8.83 87.463 29.036 65.167 54.845l-4.436 3.792z" fill="#15b3d7"/><path d="M184.65 112.82c-25.689-4.56-84.122-36.225-60.731-58.637 28.543-8.83 87.463 29.036 65.167 54.845l-4.436 3.792z" opacity=".05"/><path d="M193.46 124.34c-17.427 19.419-75.153 52.365-81.86 20.681 7.562-28.906 70.787-58.99 80.976-26.437l.884 5.756z" fill="#15b3d7"/><path d="M193.46 124.34c-17.427 19.419-75.153 52.365-81.86 20.681 7.562-28.906 70.787-58.99 80.976-26.437l.884 5.756z" opacity=".05"/><path d="M218.2 121.37c4.763 25.654-4.344 91.49-33.549 77.471-18.3-23.619-3.564-92.087 28.438-80.291l5.111 2.82z" fill="#15b3d7"/><path d="M218.2 121.37c4.763 25.654-4.344 91.49-33.549 77.471-18.3-23.619-3.564-92.087 28.438-80.291l5.111 2.82z" opacity=".05"/><path d="M227.5 112.46c29.4 5.972 90.326 39.436 70.004 66.218-32.785 8.921-86.932-28.998-75.864-59.485l5.86-6.733z" fill="#15b3d7"/><path d="M227.5 112.46c29.4 5.972 90.326 39.436 70.004 66.218-32.785 8.921-86.932-28.998-75.864-59.485l5.86-6.733z" opacity=".05"/><path d="M234.29 102.44c30.002.004 96.364 20.673 81.786 50.965-30.355 15.27-90.953-11.113-86.185-43.197l4.399-7.768z" opacity=".05"/><path d="M235.47 96.54c30.002.004 96.364 20.673 81.786 50.965-30.355 15.27-90.953-11.113-86.185-43.197l4.399-7.768z" opacity=".05"/><path d="M235.47 100.08c30.002.004 96.364 20.673 81.786 50.965-30.355 15.27-90.953-11.113-86.185-43.197l4.399-7.768z" fill="#15b3d7"/><path d="M253.5 118.9c-7.442 39.037-67.885 43.624-81.133 6.157-16.582-34.148 24.769-73.318 57.962-55.267 18.124 8.281 28.303 29.853 23.171 49.11z" fill="#f7931a"/><path d="M731.22 146.45c15.511 28.212-18.812 60.186-46.39 61.455-24.509 2.405-27.957-29.602-13.724-43.592 12.149-16.864 41.444-35.301 60.114-17.863z" fill="#15b3d7"/><path d="M719.85 143.4c13.251-22.476 63.343-66.156 76.167-36.407-1.706 29.828-57.762 71.797-74.161 41.891l-2.006-5.485z" fill="#15b3d7"/><path d="M711.37 147.69c.721-26.084 23.433-88.546 49.05-68.714 12.933 26.931-15.816 90.777-44.64 72.543l-4.41-3.829z" opacity=".05"/><path d="M708.73 147.62c.721-26.084 23.433-88.546 49.05-68.714 12.933 26.931-15.816 90.777-44.64 72.543l-4.41-3.829z" fill="#15b3d7"/><path d="M721.96 158.55c-28.441-15.449-3.36-52.894 8.01-73.327 47.903-50.531 34.9 58.966-8.01 73.327z" opacity=".05"/><path d="M724.33 93.56c18.82 20.275-10.346 92.314-14.514 42.286 2.773-14.665 7.035-29.282 14.514-42.286z" opacity=".05"/><path d="M718.03 157.92c-34.436.716-33.644-50.603-30.334-75.764 19.216-48.978 56.417 46.073 30.334 75.764z" fill="#15b3d7"/><path d="M714.39 157.11c-31.837 5.878-37.062-87.659-11.054-34.839 6.125 10.662 9.46 22.71 11.054 34.839z" opacity=".05"/><path d="M695.56 165.34c-23.18-11.979-69.585-59.56-40.598-74.023 29.881.039 74.903 53.677 45.957 71.717l-5.36 2.306z" fill="#15b3d7"/><path d="M688.85 172.13c-25.745-4.248-84.552-35.211-61.435-57.904 28.438-9.169 87.787 27.973 65.815 54.062l-4.38 3.842z" opacity=".05"/><path d="M686.73 173.16c-25.745-4.248-84.552-35.211-61.435-57.904 28.438-9.169 87.787 27.973 65.815 54.062l-4.38 3.842z" fill="#15b3d7"/><path d="M684.59 182.62c-25.083 7.186-91.485 4.398-80.318-26.007 21.767-20.463 91.324-12.335 82.638 20.646l-2.32 5.36z" opacity=".05"/><path d="M684.57 185.24c-25.083 7.186-91.485 4.398-80.318-26.007 21.767-20.463 91.324-12.335 82.638 20.646l-2.32 5.36z" fill="#15b3d7"/><path d="M686.45 197.07c-19.708 17.09-81.072 42.591-83.785 10.329 11.092-27.739 77.587-49.732 83.628-16.166l.157 5.838z" opacity=".05"/><path d="M686.43 199.71c-19.708 17.09-81.072 42.591-83.785 10.329 11.092-27.739 77.587-49.732 83.628-16.166l.157 5.838z" fill="#15b3d7"/><path d="M694.4 190.62c-7.128 25.1-44.527 80.038-64.467 54.512-5.9-29.288 37.705-84.087 61.14-59.308l3.327 4.797z" opacity=".05"/><path d="M697.55 191.72c-7.128 25.1-44.527 80.038-64.467 54.512-5.9-29.288 37.705-84.087 61.14-59.308l3.327 4.797z" fill="#15b3d7"/><path d="M690.43 186.62c15.535 20.941 36.283 84.069 3.886 84.284-26.817-13.159-43.642-81.209-9.716-84.589l5.83.305z" opacity=".05"/><path d="M694.12 186.08c15.535 20.941 36.283 84.069 3.886 84.284-26.817-13.159-43.642-81.209-9.716-84.589l5.83.305z" fill="#15b3d7"/><path d="M716.36 179.22c15.535 20.941 36.283 84.069 3.886 84.284-26.817-13.159-43.642-81.209-9.716-84.589l5.83.305z" opacity=".05"/><path d="M718.47 178.19c15.535 20.941 36.283 84.069 3.886 84.284-26.817-13.159-43.642-81.209-9.716-84.589l5.83.305z" fill="#15b3d7"/><path d="M711.26 183.26c26.006 2.097 87.186 28.062 66.035 52.596-27.575 11.5-89.827-20.588-70.089-48.401l4.053-4.194z" opacity=".05"/><path d="M713.37 182.23c26.006 2.097 87.186 28.062 66.035 52.596-27.575 11.5-89.827-20.588-70.089-48.401l4.053-4.194z" fill="#15b3d7"/><path d="M721.31 168.19c29.035-7.544 98.464-4.24 91.972 28.745-25.535 22.415-90.829 12.125-94.277-20.125l2.306-8.62z" opacity=".05"/><path d="M722.91 166.1c29.035-7.544 98.464-4.24 91.972 28.745-25.535 22.415-90.829 12.125-94.277-20.125l2.306-8.62zm-27.35-.76c-23.18-11.979-69.585-59.56-40.598-74.023 29.881.039 74.903 53.677 45.957 71.717l-5.36 2.306z" fill="#15b3d7"/><path d="M695.56 165.34c-23.18-11.979-69.585-59.56-40.598-74.023 29.881.039 74.903 53.677 45.957 71.717l-5.36 2.306z" opacity=".05"/><path d="M684.57 185.24c-25.083 7.186-91.485 4.398-80.318-26.007 21.767-20.463 91.324-12.335 82.638 20.646l-2.32 5.36z" fill="#15b3d7"/><path d="M684.57 185.24c-25.083 7.186-91.485 4.398-80.318-26.007 21.767-20.463 91.324-12.335 82.638 20.646l-2.32 5.36z" opacity=".05"/><path d="M697.55 191.72c-7.128 25.1-44.527 80.038-64.467 54.512-5.9-29.288 37.705-84.087 61.14-59.308l3.327 4.797z" fill="#15b3d7"/><path d="M697.55 191.72c-7.128 25.1-44.527 80.038-64.467 54.512-5.9-29.288 37.705-84.087 61.14-59.308l3.327 4.797z" opacity=".05"/><path d="M718.47 178.19c15.535 20.941 36.283 84.069 3.886 84.284-26.817-13.159-43.642-81.209-9.716-84.589l5.83.305z" fill="#15b3d7"/><path d="M718.47 178.19c15.535 20.941 36.283 84.069 3.886 84.284-26.817-13.159-43.642-81.209-9.716-84.589l5.83.305z" opacity=".05"/><path d="M722.91 166.1c29.035-7.544 98.464-4.24 91.972 28.745-25.535 22.415-90.829 12.125-94.277-20.125l2.306-8.62z" fill="#15b3d7"/><path d="M722.91 166.1c29.035-7.544 98.464-4.24 91.972 28.745-25.535 22.415-90.829 12.125-94.277-20.125l2.306-8.62z" opacity=".05"/><path d="M724.65 154.11c26.955-13.175 95.654-23.75 95.858 9.869-20.566 27.045-86.593 29.962-96.399-.956l.541-8.913z" opacity=".05"/><path d="M723.08 148.3c26.955-13.175 95.654-23.75 95.858 9.869-20.566 27.045-86.593 29.962-96.399-.956l.541-8.913z" opacity=".05"/><path d="M724.65 151.48c26.955-13.175 95.654-23.75 95.858 9.869-20.566 27.045-86.593 29.962-96.399-.956l.541-8.913z" fill="#15b3d7"/><path d="M749.1 160.47c10.46 38.338-41.825 69.007-70.183 41.167-29.898-23.396-9.948-76.752 27.803-75.109 19.917-.518 38.533 14.39 42.38 33.942z" fill="#f7931a"/><path d="M690.34 335.57c15.061 28.455-19.765 59.88-47.36 60.71-24.544 2.015-27.483-30.043-13.03-43.804 12.416-16.669 42-34.638 60.39-16.906z" fill="#15b3d7"/><path d="M678.99 332.23c13.598-22.275 64.377-65.154 76.735-35.208-2.177 29.799-58.888 70.877-74.818 40.718l-1.918-5.51z" fill="#15b3d7"/><path d="M670.44 336.39c1.135-26.058 24.8-88.162 50.095-67.935 12.515 27.124-17.257 90.537-45.766 71.825l-4.33-3.89z" opacity=".05"/><path d="M667.8 336.32c1.135-26.058 24.8-88.162 50.095-67.935 12.515 27.124-17.257 90.537-45.766 71.825l-4.33-3.89z" fill="#15b3d7"/><path d="M680.85 347.41c-28.188-15.902-2.538-52.945 9.162-73.197 48.682-49.771 33.978 59.517-9.162 73.197z" opacity=".05"/><path d="M684.25 282.46c18.524 20.562-11.825 92.145-15.173 42.069 3.016-14.621 7.507-29.17 15.173-42.069z" opacity=".05"/><path d="M676.93 346.72c-34.472.137-32.899-51.121-29.182-76.269 19.971-48.679 55.756 46.97 29.182 76.269z" fill="#15b3d7"/><path d="M673.31 345.86c-31.939 5.275-35.671-88.266-10.502-35.02 5.956 10.761 9.1 22.864 10.502 35.02z" opacity=".05"/><path d="M654.35 353.79c-22.988-12.341-68.641-60.646-39.431-74.649 29.872.513 74.05 54.839 44.826 72.427l-5.395 2.223z" fill="#15b3d7"/><path d="M647.54 360.47c-25.688-4.655-83.992-36.569-60.514-58.904 28.586-8.713 87.333 29.339 64.975 55.105l-4.462 3.8z" opacity=".05"/><path d="M645.4 361.47c-25.688-4.655-83.992-36.569-60.514-58.904 28.586-8.713 87.333 29.339 64.975 55.105l-4.462 3.8z" fill="#15b3d7"/><path d="M643.11 370.88c-25.197 6.788-91.534 2.962-79.906-27.275 22.088-20.13 91.509-10.878 82.308 21.956l-2.403 5.319z" opacity=".05"/><path d="M643.04 373.51c-25.197 6.788-91.534 2.962-79.906-27.275 22.088-20.13 91.509-10.878 82.308 21.956l-2.403 5.319z" fill="#15b3d7"/><path d="M644.75 385.37c-19.972 16.786-81.738 41.325-83.938 9.004 11.521-27.57 78.417-48.504 83.883-14.848l.055 5.844z" opacity=".05"/><path d="M644.65 388.01c-19.972 16.786-81.738 41.325-83.938 9.004 11.521-27.57 78.417-48.504 83.883-14.848l.055 5.844z" fill="#15b3d7"/><path d="M652.79 379.06c-7.518 24.983-45.79 79.332-65.314 53.471-5.452-29.379 39.028-83.499 62.059-58.333l3.255 4.862z" opacity=".05"/><path d="M655.92 380.19c-7.52 24.983-45.788 79.337-65.314 53.481-5.45-29.38 39.024-83.496 62.062-58.335l3.252 4.854z" fill="#15b3d7"/><path d="M648.88 374.94c15.205 21.197 34.961 84.661 2.561 84.382-26.604-13.601-42.36-81.846-8.38-84.763l5.819.382z" opacity=".05"/><path d="M652.59 374.5c15.205 21.197 34.961 84.661 2.561 84.382-26.604-13.601-42.36-81.846-8.38-84.763l5.819.382z" fill="#15b3d7"/><path d="M674.93 367.99c15.205 21.197 34.961 84.661 2.561 84.382-26.604-13.601-42.36-81.846-8.38-84.763l5.819.382z" opacity=".05"/><path d="M677.06 366.99c15.205 21.197 34.961 84.661 2.561 84.382-26.604-13.601-42.36-81.846-8.38-84.763l5.819.382z" fill="#15b3d7"/><path d="M669.76 371.95c25.973 2.505 86.731 29.44 65.193 53.639-27.754 11.066-89.49-21.997-69.319-49.5l4.126-4.139z" opacity=".05"/><path d="M671.9 370.95c25.973 2.505 86.731 29.44 65.193 53.639-27.754 11.066-89.49-21.997-69.319-49.5l4.126-4.139z" fill="#15b3d7"/><path d="M680.05 357.04c29.153-7.087 98.523-2.692 91.516 30.188-25.886 22.011-91.008 10.695-93.954-21.607l2.438-8.581z" opacity=".05"/><path d="M681.65 354.97c29.153-7.087 98.523-2.692 91.516 30.188-25.886 22.011-91.008 10.695-93.954-21.607l2.438-8.581zm-27.3-1.18c-22.988-12.341-68.641-60.646-39.431-74.649 29.872.513 74.05 54.839 44.826 72.427l-5.395 2.223z" fill="#15b3d7"/><path d="M654.35 353.79c-22.988-12.341-68.641-60.646-39.431-74.649 29.872.513 74.05 54.839 44.826 72.427l-5.395 2.223z" opacity=".05"/><path d="M643.04 373.51c-25.197 6.788-91.534 2.962-79.906-27.275 22.088-20.13 91.509-10.878 82.308 21.956l-2.403 5.319z" fill="#15b3d7"/><path d="M643.04 373.51c-25.197 6.788-91.534 2.962-79.906-27.275 22.088-20.13 91.509-10.878 82.308 21.956l-2.403 5.319z" opacity=".05"/><path d="M655.92 380.19c-7.52 24.983-45.788 79.337-65.314 53.481-5.45-29.38 39.024-83.496 62.062-58.335l3.252 4.854z" fill="#15b3d7"/><path d="M655.92 380.19c-7.52 24.983-45.788 79.337-65.314 53.481-5.45-29.38 39.024-83.496 62.062-58.335l3.252 4.854z" opacity=".05"/><path d="M677.06 366.99c15.205 21.197 34.961 84.661 2.561 84.382-26.604-13.601-42.36-81.846-8.38-84.763l5.819.382z" fill="#15b3d7"/><path d="M677.06 366.99c15.205 21.197 34.961 84.661 2.561 84.382-26.604-13.601-42.36-81.846-8.38-84.763l5.819.382z" opacity=".05"/><path d="M681.65 354.97c29.153-7.087 98.523-2.692 91.516 30.188-25.886 22.011-91.008 10.695-93.954-21.607l2.438-8.581z" fill="#15b3d7"/><path d="M681.65 354.97c29.153-7.087 98.523-2.692 91.516 30.188-25.886 22.011-91.008 10.695-93.954-21.607l2.438-8.581z" opacity=".05"/><path d="M683.58 343.02c27.155-12.746 96.013-22.249 95.683 11.373-20.986 26.72-87.056 28.59-96.366-2.48l.683-8.893z" opacity=".05"/><path d="M682.14 337.18c27.155-12.755 96.013-22.251 95.683 11.373-20.986 26.72-87.056 28.59-96.366-2.48l.683-8.893z" opacity=".05"/><path d="M683.65 340.38c27.161-12.745 96.018-22.234 95.693 11.383-20.99 26.72-87.048 28.59-96.371-2.48l.679-8.903z" fill="#15b3d7"/><path d="M707.96 349.76c9.87 38.494-42.879 68.358-70.806 40.086-29.543-23.857-8.76-76.913 28.97-74.674 19.916-.204 38.291 14.986 41.837 34.588z" fill="#f7931a"/><path d="M958.1 75.19c2.33 42.923-57.183 67.091-85.421 34.654-31.065-28.726-6.564-86.661 35.681-84.394 26.678-.61 50.349 23.064 49.74 49.74z" fill="#ffdf9c"/><path d="M96.89 476.78c11.974 24.314-9.002 50.117-3.598 75.575-11.751 21.687-3.481 40.021 8.217 47.692-4.504 24.7-13.725 47.961-30.866 66.581-10.417 25.158-18.21 51.881-29.623 67.304-17.516 32.069 88.412 26.932 36.35 4.138-21.496-31.815 25.42-67.604 40.32-95.57 10.471-21.098 23.522-44.617 33.17-5.229 11.796 24.229 9.4 52.743 24.857 75.94 5.643 7.787 10.132 16.445 11.642 26.018-21.425 32.065 59.69 18.141 50.41-4.353-13.143 4.397-24.108-3.953-34.456-8.283-9.624-10.434-10.307-30.48-16.224-44.14-9.293-18.6-3.238-38.422-9.753-57.674-5.375-26.61-14.025-52.211-15.436-79.55 13.684 5.875 44.302 38.274 36.59 6.33-11.71-11.5-40.034-12.907-39.413-33.308-5.356-27.45.303-56.16-29.961-69.015 6.534-7.433-.399-24.675 15.548-24.717 17.35-6.584 7.166-27.306 12.866-36.06-11.362-36.71-67.093-15.917-72.76 13.612-2.551 25.267-39.444 12.394-31.65 43.578-20.412 8.826-21.28 39.07 4.64 31.97 19.712 10.915 42.365-32.605 39.13-.84zm14.44 33.94c19.274 16.074-19.179 62.41-2.399 19.152 1.372-6.298 2.008-12.745 2.399-19.152z" fill="url(#c)"/><path d="M103.18 487.27c-4.277 25.349-9.174 50.822-10.83 75.953-17.069 27.244 15.691 40.94 12.808 4.897-2.454-28.301 16.311-55.158-1.978-80.85z" fill="#ffcdd3"/><path d="M103.18 487.27c-4.277 25.349-9.174 50.822-10.83 75.953-17.069 27.244 15.691 40.94 12.808 4.897-2.454-28.301 16.311-55.158-1.978-80.85z" opacity=".05"/><path d="M165.25 577.91c7.135 28.069 16.444 56.831 15.675 85.424 7.221 21.436 11.841 44.911 22.967 63.991-13.526 43.491-34.871-36.776-42.832-52.743-1.88-31.704-19.614-59.108-40.792-81.386-6.184-15.954 28.333-9.064 40.666-14.625l2.443-.373z" fill="#ffcdd3"/><path d="M116.95 585.33c16.409 26.919 42.483 51.129 43.463 85.41 9.173 21.11 17.65 70.338 39.366 70.224 9.78-22.219-12.945-43.014-15.417-66.414-7.403-19.012-2.35-39.286-9.561-58.768-4.954-11.163-2.693-35.342-14.446-37.112l-43.404 6.66z" opacity=".05"/><path d="M49.15 722.4c12.347 25.382 28.968-2.351 28.05-20.58 14.446-27.034 34.158-49.91 49.94-76.01 9.677-12.216 12.919-27.839 22.68-37.9h-44.5c-6.72 24.313-9.649 51.401-28.932 69.655-14.494 19.303-14.259 44.852-27.238 64.835z" fill="#ffcdd3"/><path d="M186.24 734.33c7.935 22.745 26.245-8.32 13.222-10.844 1.819 7.507-4.776 16.126-13.222 10.844z" opacity=".1"/><path d="M199.81 726.48c.078-7.414 8.738-1.266 10.417 1.7 18.517.777 44.629 8.235 11.997 18.64-17.597 9.015-44.878 15.816-38.004-13.33 4.558 7.787 19.656.942 15.59-7.01z" fill="#dce6f2"/><path d="M49.15 722.4c-1.593 15.383 30.315 11.901 21.672-1.208-6.449-2.451-10.284 10.818-18.143 3.267-1.718-6.577-2.205-3.318-3.529-2.059z" opacity=".1"/><path d="M66.65 722.48c8.852-3.62 6.838 17.291 18.386 14.246 33.641 26.388-68.852 18.918-39.364-13.114.703-13.325 12.234 16.363 20.978-1.132z" fill="#dce6f2"/><path d="M138.65 426.11c-4.398 24.287-20.469 45.818-32.136 18.513 11.373-20.246 5.878-41.374 30.735-19.323z" fill="#ffcdd3"/><path d="M96.82 591.13c29.131 13.463 86.436 13.12 66.173-31.225-.43-28.778-10.54-56.66-8.31-85.329-11.9-14.205-49.286-48.388-58.17-15.384-7.409 32.8 39.873 62.369 9.78 90.776-7.914 12.063-9.592 27.07-9.473 41.163z" fill="#ff8aa1"/><path d="M142.12 566.62c-9.168 23.708 21.489 44.103 24.506 15.705-2.415-30.464-5.099-49.326-23.848-16.544z" opacity=".05"/><path d="M108.48 492.54c.684 20.491 46.388 68.483 52.235 46.548-12.871-18.262-34.954-33.835-38.078-60.877-14.885-17.712-26.495-.518-14.157 14.329z" opacity=".1"/><path d="M124.9 477.78c2.476 27.777 20.491 45.265 43.789 57.515 18.764 3.708 49.124 38.518 13.639 26.467-16.718-23.107-56.619-21.3-64.475-53.375-10.041-13.195-28.075-60.209 7.048-30.607z" fill="#ffcdd3"/><path d="M129.14 484.62c-8.703-13.812-47.955-7.909-21.19-25.31 13.036 3.561 15.653 14.455 21.19 25.31z" opacity=".1"/><path d="M129.14 483.62c-8.703-13.812-47.955-7.909-21.19-25.31 13.036 3.561 15.653 14.455 21.19 25.31z" fill="#ff8aa1"/><path d="M154.08 484.62c-3.82 1.705-8.436 1.4-12-.79m-22.74-69.58c-11.32-2.332 36.412 19.834 8.85 15.569-4.028-4.591-5.093-10.811-8.85-15.569z" opacity=".1"/><path d="M156.15 407.92c1.399 25.826-39.68 31.375-45.24 6.134-8.16-24.134 29.028-40.676 41.588-18.523a22.872 22.872 0 0 1 3.652 12.389z" fill="#ffcdd3"/><path d="M143.45 408.32c-21.213 14.56 1.4 54.796-37.44 47.73-11.584 32.854-96.989 31.632-49.82-7.03-4.789-32.974 37.704-22.372 37.071-56.557 12.468-29.862 85.792-15.765 52.291 10.139a14.566 14.566 0 0 0-2.102 5.719z" opacity=".1"/><path d="M142.39 407.79c-21.213 14.56 1.4 54.796-37.44 47.73-11.584 32.854-96.989 31.632-49.82-7.03-4.789-32.974 37.704-22.372 37.071-56.557 12.468-29.862 85.792-15.765 52.291 10.139a14.566 14.566 0 0 0-2.102 5.719zm68.7-80.17c44.76 66.512-1.664-76.111 0 0zm64.31 69.47c2.679 80.119 38.937-65.388 0 0zm463.86 79.71c-35.206 72.014 65.08-39.451 0 0z" fill="#15b3d7"/><g fill="#f1f1f1" font-family="'Century Schoolbook L'" font-size="61.563" font-weight="bold" letter-spacing="0" stroke-width="1.539" word-spacing="0"><text transform="rotate(-19.141)" x="145.819" y="191.703" style="font-feature-settings:normal;font-variant-caps:normal;font-variant-ligatures:normal;font-variant-numeric:normal;line-height:1.25"><tspan x="145.819" y="191.703">$</tspan></text><text transform="rotate(-21.928)" x="312.655" y="456.248" style="font-feature-settings:normal;font-variant-caps:normal;font-variant-ligatures:normal;font-variant-numeric:normal;line-height:1.25"><tspan x="312.655" y="456.248">$</tspan></text><text transform="rotate(7.12)" x="704.239" y="99.575" style="font-feature-settings:normal;font-variant-caps:normal;font-variant-ligatures:normal;font-variant-numeric:normal;line-height:1.25"><tspan x="704.239" y="99.575">$</tspan></text><text transform="rotate(23.629)" x="735.383" y="79.902" style="font-feature-settings:normal;font-variant-caps:normal;font-variant-ligatures:normal;font-variant-numeric:normal;line-height:1.25"><tspan x="735.383" y="79.902">$</tspan></text></g></svg>